<?xml version="1.0" encoding="UTF-8" standalone="no"?><svg xmlns="http://www.w3.org/2000/svg" xmlns:xlink="http://www.w3.org/1999/xlink" contentScriptType="application/ecmascript" contentStyleType="text/css" height="1628px" preserveAspectRatio="none" style="width:1361px;height:1628px;background:#FFFFFF;" version="1.1" viewBox="0 0 1361 1628" width="1361px" zoomAndPan="magnify"><defs><filter height="300%" id="fsafl3ar409mk" width="300%" x="-1" y="-1"><feGaussianBlur result="blurOut" stdDeviation="2.0"/><feColorMatrix in="blurOut" result="blurOut2" type="matrix" values="0 0 0 0 0 0 0 0 0 0 0 0 0 0 0 0 0 0 .4 0"/><feOffset dx="4.0" dy="4.0" in="blurOut2" result="blurOut3"/><feBlend in="SourceGraphic" in2="blurOut3" mode="normal"/></filter></defs><g><!--MD5=[e499b8e080fb4e526e3c7099dfbe65b4]
class FootballTournaments--><a href="marker:/org.eclipse.emf.ecore.diagnostic/ft/model/ft.ecore?uri=platform:/resource/ft/model/ft.ecore%23//FootballTournaments" target="_top" title="marker:/org.eclipse.emf.ecore.diagnostic/ft/model/ft.ecore?uri=platform:/resource/ft/model/ft.ecore%23//FootballTournaments" xlink:actuate="onRequest" xlink:href="marker:/org.eclipse.emf.ecore.diagnostic/ft/model/ft.ecore?uri=platform:/resource/ft/model/ft.ecore%23//FootballTournaments" xlink:show="new" xlink:title="marker:/org.eclipse.emf.ecore.diagnostic/ft/model/ft.ecore?uri=platform:/resource/ft/model/ft.ecore%23//FootballTournaments" xlink:type="simple"><rect codeLine="1" fill="#FEFECE" filter="url(#fsafl3ar409mk)" height="48" id="FootballTournaments" style="stroke:#A80036;stroke-width:1.5;" width="158" x="529.5" y="26"/><ellipse cx="544.5" cy="42" fill="#ADD1B2" rx="11" ry="11" style="stroke:#A80036;stroke-width:1.0;"/><path d="M546.8438,37.6719 C545.9063,37.2344 545.3125,37.0938 544.4375,37.0938 C541.8125,37.0938 539.8125,39.1719 539.8125,41.8906 L539.8125,43.0156 C539.8125,45.5938 541.9219,47.4844 544.8125,47.4844 C546.0313,47.4844 547.1875,47.1875 547.9375,46.6406 C548.5156,46.2344 548.8438,45.7813 548.8438,45.3906 C548.8438,44.9375 548.4531,44.5469 547.9844,44.5469 C547.7656,44.5469 547.5625,44.625 547.375,44.8125 C546.9219,45.2969 546.9219,45.2969 546.7344,45.3906 C546.3125,45.6563 545.625,45.7813 544.8594,45.7813 C542.8125,45.7813 541.5156,44.6875 541.5156,42.9844 L541.5156,41.8906 C541.5156,40.1094 542.7656,38.7969 544.5,38.7969 C545.0781,38.7969 545.6875,38.9531 546.1563,39.2031 C546.6406,39.4844 546.8125,39.7031 546.9063,40.1094 C546.9688,40.5156 547,40.6406 547.1406,40.7656 C547.2813,40.9063 547.5156,41.0156 547.7344,41.0156 C548,41.0156 548.2656,40.875 548.4375,40.6563 C548.5469,40.5 548.5781,40.3125 548.5781,39.8906 L548.5781,38.4688 C548.5781,38.0313 548.5625,37.9063 548.4688,37.75 C548.3125,37.4844 548.0313,37.3438 547.7344,37.3438 C547.4375,37.3438 547.2344,37.4375 547.0156,37.75 L546.8438,37.6719 Z " fill="#000000"/><text fill="#000000" font-family="sans-serif" font-size="12" lengthAdjust="spacing" textLength="126" x="558.5" y="46.1543">FootballTournaments</text><line style="stroke:#A80036;stroke-width:1.5;" x1="530.5" x2="686.5" y1="58" y2="58"/><line style="stroke:#A80036;stroke-width:1.5;" x1="530.5" x2="686.5" y1="66" y2="66"/></a><!--MD5=[4982403649eae7513375027cbc964d4f]
class AbstractHost--><a href="marker:/org.eclipse.emf.ecore.diagnostic/ft/model/ft.ecore?uri=platform:/resource/ft/model/ft.ecore%23//AbstractHost" target="_top" title="marker:/org.eclipse.emf.ecore.diagnostic/ft/model/ft.ecore?uri=platform:/resource/ft/model/ft.ecore%23//AbstractHost" xlink:actuate="onRequest" xlink:href="marker:/org.eclipse.emf.ecore.diagnostic/ft/model/ft.ecore?uri=platform:/resource/ft/model/ft.ecore%23//AbstractHost" xlink:show="new" xlink:title="marker:/org.eclipse.emf.ecore.diagnostic/ft/model/ft.ecore?uri=platform:/resource/ft/model/ft.ecore%23//AbstractHost" xlink:type="simple"><rect codeLine="3" fill="#FEFECE" filter="url(#fsafl3ar409mk)" height="48" id="AbstractHost" style="stroke:#A80036;stroke-width:1.5;" width="110" x="499.5" y="159.5"/><ellipse cx="514.5" cy="175.5" fill="#A9DCDF" rx="11" ry="11" style="stroke:#A80036;stroke-width:1.0;"/><path d="M516.5781,177.3125 L516.9688,178.2969 L516.5781,178.2969 C516.125,178.2969 516.0156,178.3125 515.8594,178.4219 C515.6094,178.5781 515.4531,178.8594 515.4531,179.1563 C515.4531,179.4219 515.5938,179.6719 515.8125,179.8281 C515.9531,179.9531 516.1563,180 516.5781,180 L518.9375,180 C519.2969,180 519.5156,179.9688 519.6563,179.875 C519.9063,179.7344 520.0625,179.4375 520.0625,179.1563 C520.0625,178.875 519.9219,178.625 519.7031,178.4688 C519.5313,178.3281 519.375,178.2969 518.9063,178.2969 L515.5156,170.0938 L511.8438,170.0938 C511.3906,170.0938 511.2656,170.1094 511.1094,170.2031 C510.8594,170.375 510.7031,170.6563 510.7031,170.9375 C510.7031,171.2188 510.8438,171.4688 511.0625,171.6406 C511.2344,171.75 511.4063,171.7813 511.8438,171.7813 L512.9219,171.7813 L510.2813,178.2969 C509.8594,178.2969 509.7031,178.3125 509.5469,178.4219 C509.2969,178.5781 509.1406,178.8594 509.1406,179.1563 C509.1406,179.7188 509.5156,180 510.2656,180 L512.5313,180 C512.8906,180 513.1094,179.9688 513.2344,179.875 C513.5,179.7344 513.6406,179.4375 513.6406,179.1563 C513.6406,178.875 513.5156,178.625 513.2969,178.4531 C513.125,178.3281 512.9844,178.2969 512.5313,178.2969 L512.1406,178.2969 L512.5313,177.3125 L516.5781,177.3125 Z M515.875,175.6094 L513.2031,175.6094 L514.5469,172.3438 L515.875,175.6094 Z " fill="#000000"/><text fill="#000000" font-family="sans-serif" font-size="12" font-style="italic" lengthAdjust="spacing" textLength="78" x="528.5" y="179.6543">AbstractHost</text><line style="stroke:#A80036;stroke-width:1.5;" x1="500.5" x2="608.5" y1="191.5" y2="191.5"/><line style="stroke:#A80036;stroke-width:1.5;" x1="500.5" x2="608.5" y1="199.5" y2="199.5"/></a><!--MD5=[32bf6595a7f90f35310ccbc9d6b58a17]
class AssociationHost--><a href="marker:/org.eclipse.emf.ecore.diagnostic/ft/model/ft.ecore?uri=platform:/resource/ft/model/ft.ecore%23//AssociationHost" target="_top" title="marker:/org.eclipse.emf.ecore.diagnostic/ft/model/ft.ecore?uri=platform:/resource/ft/model/ft.ecore%23//AssociationHost" xlink:actuate="onRequest" xlink:href="marker:/org.eclipse.emf.ecore.diagnostic/ft/model/ft.ecore?uri=platform:/resource/ft/model/ft.ecore%23//AssociationHost" xlink:show="new" xlink:title="marker:/org.eclipse.emf.ecore.diagnostic/ft/model/ft.ecore?uri=platform:/resource/ft/model/ft.ecore%23//AssociationHost" xlink:type="simple"><rect codeLine="5" fill="#FEFECE" filter="url(#fsafl3ar409mk)" height="60.8047" id="AssociationHost" style="stroke:#A80036;stroke-width:1.5;" width="129" x="334" y="280.5"/><ellipse cx="349" cy="296.5" fill="#ADD1B2" rx="11" ry="11" style="stroke:#A80036;stroke-width:1.0;"/><path d="M351.3438,292.1719 C350.4063,291.7344 349.8125,291.5938 348.9375,291.5938 C346.3125,291.5938 344.3125,293.6719 344.3125,296.3906 L344.3125,297.5156 C344.3125,300.0938 346.4219,301.9844 349.3125,301.9844 C350.5313,301.9844 351.6875,301.6875 352.4375,301.1406 C353.0156,300.7344 353.3438,300.2813 353.3438,299.8906 C353.3438,299.4375 352.9531,299.0469 352.4844,299.0469 C352.2656,299.0469 352.0625,299.125 351.875,299.3125 C351.4219,299.7969 351.4219,299.7969 351.2344,299.8906 C350.8125,300.1563 350.125,300.2813 349.3594,300.2813 C347.3125,300.2813 346.0156,299.1875 346.0156,297.4844 L346.0156,296.3906 C346.0156,294.6094 347.2656,293.2969 349,293.2969 C349.5781,293.2969 350.1875,293.4531 350.6563,293.7031 C351.1406,293.9844 351.3125,294.2031 351.4063,294.6094 C351.4688,295.0156 351.5,295.1406 351.6406,295.2656 C351.7813,295.4063 352.0156,295.5156 352.2344,295.5156 C352.5,295.5156 352.7656,295.375 352.9375,295.1563 C353.0469,295 353.0781,294.8125 353.0781,294.3906 L353.0781,292.9688 C353.0781,292.5313 353.0625,292.4063 352.9688,292.25 C352.8125,291.9844 352.5313,291.8438 352.2344,291.8438 C351.9375,291.8438 351.7344,291.9375 351.5156,292.25 L351.3438,292.1719 Z " fill="#000000"/><text fill="#000000" font-family="sans-serif" font-size="12" lengthAdjust="spacing" textLength="97" x="363" y="300.6543">AssociationHost</text><line style="stroke:#A80036;stroke-width:1.5;" x1="335" x2="462" y1="312.5" y2="312.5"/><text fill="#000000" font-family="sans-serif" font-size="11" lengthAdjust="spacing" textLength="73" x="340" y="326.7104">name: String</text><line style="stroke:#A80036;stroke-width:1.5;" x1="335" x2="462" y1="333.3047" y2="333.3047"/></a><!--MD5=[a2945a0169a3337bcc00bcb8f1d92815]
class RegionalHost--><a href="marker:/org.eclipse.emf.ecore.diagnostic/ft/model/ft.ecore?uri=platform:/resource/ft/model/ft.ecore%23//RegionalHost" target="_top" title="marker:/org.eclipse.emf.ecore.diagnostic/ft/model/ft.ecore?uri=platform:/resource/ft/model/ft.ecore%23//RegionalHost" xlink:actuate="onRequest" xlink:href="marker:/org.eclipse.emf.ecore.diagnostic/ft/model/ft.ecore?uri=platform:/resource/ft/model/ft.ecore%23//RegionalHost" xlink:show="new" xlink:title="marker:/org.eclipse.emf.ecore.diagnostic/ft/model/ft.ecore?uri=platform:/resource/ft/model/ft.ecore%23//RegionalHost" xlink:type="simple"><rect codeLine="8" fill="#FEFECE" filter="url(#fsafl3ar409mk)" height="48" id="RegionalHost" style="stroke:#A80036;stroke-width:1.5;" width="111" x="498" y="287"/><ellipse cx="513" cy="303" fill="#ADD1B2" rx="11" ry="11" style="stroke:#A80036;stroke-width:1.0;"/><path d="M515.3438,298.6719 C514.4063,298.2344 513.8125,298.0938 512.9375,298.0938 C510.3125,298.0938 508.3125,300.1719 508.3125,302.8906 L508.3125,304.0156 C508.3125,306.5938 510.4219,308.4844 513.3125,308.4844 C514.5313,308.4844 515.6875,308.1875 516.4375,307.6406 C517.0156,307.2344 517.3438,306.7813 517.3438,306.3906 C517.3438,305.9375 516.9531,305.5469 516.4844,305.5469 C516.2656,305.5469 516.0625,305.625 515.875,305.8125 C515.4219,306.2969 515.4219,306.2969 515.2344,306.3906 C514.8125,306.6563 514.125,306.7813 513.3594,306.7813 C511.3125,306.7813 510.0156,305.6875 510.0156,303.9844 L510.0156,302.8906 C510.0156,301.1094 511.2656,299.7969 513,299.7969 C513.5781,299.7969 514.1875,299.9531 514.6563,300.2031 C515.1406,300.4844 515.3125,300.7031 515.4063,301.1094 C515.4688,301.5156 515.5,301.6406 515.6406,301.7656 C515.7813,301.9063 516.0156,302.0156 516.2344,302.0156 C516.5,302.0156 516.7656,301.875 516.9375,301.6563 C517.0469,301.5 517.0781,301.3125 517.0781,300.8906 L517.0781,299.4688 C517.0781,299.0313 517.0625,298.9063 516.9688,298.75 C516.8125,298.4844 516.5313,298.3438 516.2344,298.3438 C515.9375,298.3438 515.7344,298.4375 515.5156,298.75 L515.3438,298.6719 Z " fill="#000000"/><text fill="#000000" font-family="sans-serif" font-size="12" lengthAdjust="spacing" textLength="79" x="527" y="307.1543">RegionalHost</text><line style="stroke:#A80036;stroke-width:1.5;" x1="499" x2="608" y1="319" y2="319"/><line style="stroke:#A80036;stroke-width:1.5;" x1="499" x2="608" y1="327" y2="327"/></a><!--MD5=[bdb7a498ae268604f9dee9fee1851af7]
class Region--><a href="marker:/org.eclipse.emf.ecore.diagnostic/ft/model/ft.ecore?uri=platform:/resource/ft/model/ft.ecore%23//Region" target="_top" title="marker:/org.eclipse.emf.ecore.diagnostic/ft/model/ft.ecore?uri=platform:/resource/ft/model/ft.ecore%23//Region" xlink:actuate="onRequest" xlink:href="marker:/org.eclipse.emf.ecore.diagnostic/ft/model/ft.ecore?uri=platform:/resource/ft/model/ft.ecore%23//Region" xlink:show="new" xlink:title="marker:/org.eclipse.emf.ecore.diagnostic/ft/model/ft.ecore?uri=platform:/resource/ft/model/ft.ecore%23//Region" xlink:type="simple"><rect codeLine="10" fill="#FEFECE" filter="url(#fsafl3ar409mk)" height="60.8047" id="Region" style="stroke:#A80036;stroke-width:1.5;" width="85" x="553" y="420.5"/><ellipse cx="573.4" cy="436.5" fill="#ADD1B2" rx="11" ry="11" style="stroke:#A80036;stroke-width:1.0;"/><path d="M575.7438,432.1719 C574.8063,431.7344 574.2125,431.5938 573.3375,431.5938 C570.7125,431.5938 568.7125,433.6719 568.7125,436.3906 L568.7125,437.5156 C568.7125,440.0938 570.8219,441.9844 573.7125,441.9844 C574.9313,441.9844 576.0875,441.6875 576.8375,441.1406 C577.4156,440.7344 577.7438,440.2813 577.7438,439.8906 C577.7438,439.4375 577.3531,439.0469 576.8844,439.0469 C576.6656,439.0469 576.4625,439.125 576.275,439.3125 C575.8219,439.7969 575.8219,439.7969 575.6344,439.8906 C575.2125,440.1563 574.525,440.2813 573.7594,440.2813 C571.7125,440.2813 570.4156,439.1875 570.4156,437.4844 L570.4156,436.3906 C570.4156,434.6094 571.6656,433.2969 573.4,433.2969 C573.9781,433.2969 574.5875,433.4531 575.0563,433.7031 C575.5406,433.9844 575.7125,434.2031 575.8063,434.6094 C575.8688,435.0156 575.9,435.1406 576.0406,435.2656 C576.1813,435.4063 576.4156,435.5156 576.6344,435.5156 C576.9,435.5156 577.1656,435.375 577.3375,435.1563 C577.4469,435 577.4781,434.8125 577.4781,434.3906 L577.4781,432.9688 C577.4781,432.5313 577.4625,432.4063 577.3688,432.25 C577.2125,431.9844 576.9313,431.8438 576.6344,431.8438 C576.3375,431.8438 576.1344,431.9375 575.9156,432.25 L575.7438,432.1719 Z " fill="#000000"/><text fill="#000000" font-family="sans-serif" font-size="12" lengthAdjust="spacing" textLength="41" x="588.6" y="440.6543">Region</text><line style="stroke:#A80036;stroke-width:1.5;" x1="554" x2="637" y1="452.5" y2="452.5"/><text fill="#000000" font-family="sans-serif" font-size="11" lengthAdjust="spacing" textLength="73" x="559" y="466.7104">name: String</text><line style="stroke:#A80036;stroke-width:1.5;" x1="554" x2="637" y1="473.3047" y2="473.3047"/></a><!--MD5=[a7ca736ec2eaa3f5c977a8fac7fd0779]
class Club--><a href="marker:/org.eclipse.emf.ecore.diagnostic/ft/model/ft.ecore?uri=platform:/resource/ft/model/ft.ecore%23//Club" target="_top" title="marker:/org.eclipse.emf.ecore.diagnostic/ft/model/ft.ecore?uri=platform:/resource/ft/model/ft.ecore%23//Club" xlink:actuate="onRequest" xlink:href="marker:/org.eclipse.emf.ecore.diagnostic/ft/model/ft.ecore?uri=platform:/resource/ft/model/ft.ecore%23//Club" xlink:show="new" xlink:title="marker:/org.eclipse.emf.ecore.diagnostic/ft/model/ft.ecore?uri=platform:/resource/ft/model/ft.ecore%23//Club" xlink:type="simple"><rect codeLine="13" fill="#FEFECE" filter="url(#fsafl3ar409mk)" height="73.6094" id="Club" style="stroke:#A80036;stroke-width:1.5;" width="127" x="723" y="1133"/><ellipse cx="769.25" cy="1149" fill="#ADD1B2" rx="11" ry="11" style="stroke:#A80036;stroke-width:1.0;"/><path d="M771.5938,1144.6719 C770.6563,1144.2344 770.0625,1144.0938 769.1875,1144.0938 C766.5625,1144.0938 764.5625,1146.1719 764.5625,1148.8906 L764.5625,1150.0156 C764.5625,1152.5938 766.6719,1154.4844 769.5625,1154.4844 C770.7813,1154.4844 771.9375,1154.1875 772.6875,1153.6406 C773.2656,1153.2344 773.5938,1152.7813 773.5938,1152.3906 C773.5938,1151.9375 773.2031,1151.5469 772.7344,1151.5469 C772.5156,1151.5469 772.3125,1151.625 772.125,1151.8125 C771.6719,1152.2969 771.6719,1152.2969 771.4844,1152.3906 C771.0625,1152.6563 770.375,1152.7813 769.6094,1152.7813 C767.5625,1152.7813 766.2656,1151.6875 766.2656,1149.9844 L766.2656,1148.8906 C766.2656,1147.1094 767.5156,1145.7969 769.25,1145.7969 C769.8281,1145.7969 770.4375,1145.9531 770.9063,1146.2031 C771.3906,1146.4844 771.5625,1146.7031 771.6563,1147.1094 C771.7188,1147.5156 771.75,1147.6406 771.8906,1147.7656 C772.0313,1147.9063 772.2656,1148.0156 772.4844,1148.0156 C772.75,1148.0156 773.0156,1147.875 773.1875,1147.6563 C773.2969,1147.5 773.3281,1147.3125 773.3281,1146.8906 L773.3281,1145.4688 C773.3281,1145.0313 773.3125,1144.9063 773.2188,1144.75 C773.0625,1144.4844 772.7813,1144.3438 772.4844,1144.3438 C772.1875,1144.3438 771.9844,1144.4375 771.7656,1144.75 L771.5938,1144.6719 Z " fill="#000000"/><text fill="#000000" font-family="sans-serif" font-size="12" lengthAdjust="spacing" textLength="26" x="789.75" y="1153.1543">Club</text><line style="stroke:#A80036;stroke-width:1.5;" x1="724" x2="849" y1="1165" y2="1165"/><text fill="#000000" font-family="sans-serif" font-size="11" lengthAdjust="spacing" textLength="73" x="729" y="1179.2104">name: String</text><text fill="#000000" font-family="sans-serif" font-size="11" lengthAdjust="spacing" textLength="115" x="729" y="1192.0151">gender: GenderKind</text><line style="stroke:#A80036;stroke-width:1.5;" x1="724" x2="849" y1="1198.6094" y2="1198.6094"/></a><!--MD5=[a4b4d324fd2684dbb9bd6a0eaf7882b2]
class Tournament--><a href="marker:/org.eclipse.emf.ecore.diagnostic/ft/model/ft.ecore?uri=platform:/resource/ft/model/ft.ecore%23//Tournament" target="_top" title="marker:/org.eclipse.emf.ecore.diagnostic/ft/model/ft.ecore?uri=platform:/resource/ft/model/ft.ecore%23//Tournament" xlink:actuate="onRequest" xlink:href="marker:/org.eclipse.emf.ecore.diagnostic/ft/model/ft.ecore?uri=platform:/resource/ft/model/ft.ecore%23//Tournament" xlink:show="new" xlink:title="marker:/org.eclipse.emf.ecore.diagnostic/ft/model/ft.ecore?uri=platform:/resource/ft/model/ft.ecore%23//Tournament" xlink:type="simple"><rect codeLine="17" fill="#FEFECE" filter="url(#fsafl3ar409mk)" height="73.6094" id="Tournament" style="stroke:#A80036;stroke-width:1.5;" width="127" x="716" y="274"/><ellipse cx="741.8" cy="290" fill="#ADD1B2" rx="11" ry="11" style="stroke:#A80036;stroke-width:1.0;"/><path d="M744.1438,285.6719 C743.2063,285.2344 742.6125,285.0938 741.7375,285.0938 C739.1125,285.0938 737.1125,287.1719 737.1125,289.8906 L737.1125,291.0156 C737.1125,293.5938 739.2219,295.4844 742.1125,295.4844 C743.3313,295.4844 744.4875,295.1875 745.2375,294.6406 C745.8156,294.2344 746.1438,293.7813 746.1438,293.3906 C746.1438,292.9375 745.7531,292.5469 745.2844,292.5469 C745.0656,292.5469 744.8625,292.625 744.675,292.8125 C744.2219,293.2969 744.2219,293.2969 744.0344,293.3906 C743.6125,293.6563 742.925,293.7813 742.1594,293.7813 C740.1125,293.7813 738.8156,292.6875 738.8156,290.9844 L738.8156,289.8906 C738.8156,288.1094 740.0656,286.7969 741.8,286.7969 C742.3781,286.7969 742.9875,286.9531 743.4563,287.2031 C743.9406,287.4844 744.1125,287.7031 744.2063,288.1094 C744.2688,288.5156 744.3,288.6406 744.4406,288.7656 C744.5813,288.9063 744.8156,289.0156 745.0344,289.0156 C745.3,289.0156 745.5656,288.875 745.7375,288.6563 C745.8469,288.5 745.8781,288.3125 745.8781,287.8906 L745.8781,286.4688 C745.8781,286.0313 745.8625,285.9063 745.7688,285.75 C745.6125,285.4844 745.3313,285.3438 745.0344,285.3438 C744.7375,285.3438 744.5344,285.4375 744.3156,285.75 L744.1438,285.6719 Z " fill="#000000"/><text fill="#000000" font-family="sans-serif" font-size="12" lengthAdjust="spacing" textLength="71" x="758.2" y="294.1543">Tournament</text><line style="stroke:#A80036;stroke-width:1.5;" x1="717" x2="842" y1="306" y2="306"/><text fill="#000000" font-family="sans-serif" font-size="11" lengthAdjust="spacing" textLength="73" x="722" y="320.2104">name: String</text><text fill="#000000" font-family="sans-serif" font-size="11" lengthAdjust="spacing" textLength="115" x="722" y="333.0151">gender: GenderKind</text><line style="stroke:#A80036;stroke-width:1.5;" x1="717" x2="842" y1="339.6094" y2="339.6094"/></a><!--MD5=[2916714cae8f0462c1096d4fd55ce4c3]
class Season--><a href="marker:/org.eclipse.emf.ecore.diagnostic/ft/model/ft.ecore?uri=platform:/resource/ft/model/ft.ecore%23//Season" target="_top" title="marker:/org.eclipse.emf.ecore.diagnostic/ft/model/ft.ecore?uri=platform:/resource/ft/model/ft.ecore%23//Season" xlink:actuate="onRequest" xlink:href="marker:/org.eclipse.emf.ecore.diagnostic/ft/model/ft.ecore?uri=platform:/resource/ft/model/ft.ecore%23//Season" xlink:show="new" xlink:title="marker:/org.eclipse.emf.ecore.diagnostic/ft/model/ft.ecore?uri=platform:/resource/ft/model/ft.ecore%23//Season" xlink:type="simple"><rect codeLine="21" fill="#FEFECE" filter="url(#fsafl3ar409mk)" height="86.4141" id="Season" style="stroke:#A80036;stroke-width:1.5;" width="129" x="715" y="408"/><ellipse cx="753.4" cy="424" fill="#ADD1B2" rx="11" ry="11" style="stroke:#A80036;stroke-width:1.0;"/><path d="M755.7438,419.6719 C754.8063,419.2344 754.2125,419.0938 753.3375,419.0938 C750.7125,419.0938 748.7125,421.1719 748.7125,423.8906 L748.7125,425.0156 C748.7125,427.5938 750.8219,429.4844 753.7125,429.4844 C754.9313,429.4844 756.0875,429.1875 756.8375,428.6406 C757.4156,428.2344 757.7438,427.7813 757.7438,427.3906 C757.7438,426.9375 757.3531,426.5469 756.8844,426.5469 C756.6656,426.5469 756.4625,426.625 756.275,426.8125 C755.8219,427.2969 755.8219,427.2969 755.6344,427.3906 C755.2125,427.6563 754.525,427.7813 753.7594,427.7813 C751.7125,427.7813 750.4156,426.6875 750.4156,424.9844 L750.4156,423.8906 C750.4156,422.1094 751.6656,420.7969 753.4,420.7969 C753.9781,420.7969 754.5875,420.9531 755.0563,421.2031 C755.5406,421.4844 755.7125,421.7031 755.8063,422.1094 C755.8688,422.5156 755.9,422.6406 756.0406,422.7656 C756.1813,422.9063 756.4156,423.0156 756.6344,423.0156 C756.9,423.0156 757.1656,422.875 757.3375,422.6563 C757.4469,422.5 757.4781,422.3125 757.4781,421.8906 L757.4781,420.4688 C757.4781,420.0313 757.4625,419.9063 757.3688,419.75 C757.2125,419.4844 756.9313,419.3438 756.6344,419.3438 C756.3375,419.3438 756.1344,419.4375 755.9156,419.75 L755.7438,419.6719 Z " fill="#000000"/><text fill="#000000" font-family="sans-serif" font-size="12" lengthAdjust="spacing" textLength="45" x="772.6" y="428.1543">Season</text><line style="stroke:#A80036;stroke-width:1.5;" x1="716" x2="843" y1="440" y2="440"/><text fill="#000000" font-family="sans-serif" font-size="11" lengthAdjust="spacing" textLength="117" x="721" y="454.2104">startDate: LocalDate</text><text fill="#000000" font-family="sans-serif" font-size="11" lengthAdjust="spacing" textLength="114" x="721" y="467.0151">endDate: LocalDate</text><text fill="#000000" font-family="sans-serif" font-size="11" lengthAdjust="spacing" textLength="117" x="721" y="479.8198">yearIdentifier: String</text><line style="stroke:#A80036;stroke-width:1.5;" x1="716" x2="843" y1="486.4141" y2="486.4141"/></a><!--MD5=[cbfc57bef1c415c3126d20e2f7e364c7]
class Stage--><a href="marker:/org.eclipse.emf.ecore.diagnostic/ft/model/ft.ecore?uri=platform:/resource/ft/model/ft.ecore%23//Stage" target="_top" title="marker:/org.eclipse.emf.ecore.diagnostic/ft/model/ft.ecore?uri=platform:/resource/ft/model/ft.ecore%23//Stage" xlink:actuate="onRequest" xlink:href="marker:/org.eclipse.emf.ecore.diagnostic/ft/model/ft.ecore?uri=platform:/resource/ft/model/ft.ecore%23//Stage" xlink:show="new" xlink:title="marker:/org.eclipse.emf.ecore.diagnostic/ft/model/ft.ecore?uri=platform:/resource/ft/model/ft.ecore%23//Stage" xlink:type="simple"><rect codeLine="26" fill="#FEFECE" filter="url(#fsafl3ar409mk)" height="48" id="Stage" style="stroke:#A80036;stroke-width:1.5;" width="67" x="893" y="554"/><ellipse cx="908" cy="570" fill="#ADD1B2" rx="11" ry="11" style="stroke:#A80036;stroke-width:1.0;"/><path d="M910.3438,565.6719 C909.4063,565.2344 908.8125,565.0938 907.9375,565.0938 C905.3125,565.0938 903.3125,567.1719 903.3125,569.8906 L903.3125,571.0156 C903.3125,573.5938 905.4219,575.4844 908.3125,575.4844 C909.5313,575.4844 910.6875,575.1875 911.4375,574.6406 C912.0156,574.2344 912.3438,573.7813 912.3438,573.3906 C912.3438,572.9375 911.9531,572.5469 911.4844,572.5469 C911.2656,572.5469 911.0625,572.625 910.875,572.8125 C910.4219,573.2969 910.4219,573.2969 910.2344,573.3906 C909.8125,573.6563 909.125,573.7813 908.3594,573.7813 C906.3125,573.7813 905.0156,572.6875 905.0156,570.9844 L905.0156,569.8906 C905.0156,568.1094 906.2656,566.7969 908,566.7969 C908.5781,566.7969 909.1875,566.9531 909.6563,567.2031 C910.1406,567.4844 910.3125,567.7031 910.4063,568.1094 C910.4688,568.5156 910.5,568.6406 910.6406,568.7656 C910.7813,568.9063 911.0156,569.0156 911.2344,569.0156 C911.5,569.0156 911.7656,568.875 911.9375,568.6563 C912.0469,568.5 912.0781,568.3125 912.0781,567.8906 L912.0781,566.4688 C912.0781,566.0313 912.0625,565.9063 911.9688,565.75 C911.8125,565.4844 911.5313,565.3438 911.2344,565.3438 C910.9375,565.3438 910.7344,565.4375 910.5156,565.75 L910.3438,565.6719 Z " fill="#000000"/><text fill="#000000" font-family="sans-serif" font-size="12" lengthAdjust="spacing" textLength="35" x="922" y="574.1543">Stage</text><line style="stroke:#A80036;stroke-width:1.5;" x1="894" x2="959" y1="586" y2="586"/><line style="stroke:#A80036;stroke-width:1.5;" x1="894" x2="959" y1="594" y2="594"/></a><!--MD5=[1e4b1aa2bdd54e294533c23569de32e7]
class DoubleRoundRobin--><a href="marker:/org.eclipse.emf.ecore.diagnostic/ft/model/ft.ecore?uri=platform:/resource/ft/model/ft.ecore%23//DoubleRoundRobin" target="_top" title="marker:/org.eclipse.emf.ecore.diagnostic/ft/model/ft.ecore?uri=platform:/resource/ft/model/ft.ecore%23//DoubleRoundRobin" xlink:actuate="onRequest" xlink:href="marker:/org.eclipse.emf.ecore.diagnostic/ft/model/ft.ecore?uri=platform:/resource/ft/model/ft.ecore%23//DoubleRoundRobin" xlink:show="new" xlink:title="marker:/org.eclipse.emf.ecore.diagnostic/ft/model/ft.ecore?uri=platform:/resource/ft/model/ft.ecore%23//DoubleRoundRobin" xlink:type="simple"><rect codeLine="28" fill="#FEFECE" filter="url(#fsafl3ar409mk)" height="48" id="DoubleRoundRobin" style="stroke:#A80036;stroke-width:1.5;" width="145" x="791" y="668.5"/><ellipse cx="806" cy="684.5" fill="#ADD1B2" rx="11" ry="11" style="stroke:#A80036;stroke-width:1.0;"/><path d="M808.3438,680.1719 C807.4063,679.7344 806.8125,679.5938 805.9375,679.5938 C803.3125,679.5938 801.3125,681.6719 801.3125,684.3906 L801.3125,685.5156 C801.3125,688.0938 803.4219,689.9844 806.3125,689.9844 C807.5313,689.9844 808.6875,689.6875 809.4375,689.1406 C810.0156,688.7344 810.3438,688.2813 810.3438,687.8906 C810.3438,687.4375 809.9531,687.0469 809.4844,687.0469 C809.2656,687.0469 809.0625,687.125 808.875,687.3125 C808.4219,687.7969 808.4219,687.7969 808.2344,687.8906 C807.8125,688.1563 807.125,688.2813 806.3594,688.2813 C804.3125,688.2813 803.0156,687.1875 803.0156,685.4844 L803.0156,684.3906 C803.0156,682.6094 804.2656,681.2969 806,681.2969 C806.5781,681.2969 807.1875,681.4531 807.6563,681.7031 C808.1406,681.9844 808.3125,682.2031 808.4063,682.6094 C808.4688,683.0156 808.5,683.1406 808.6406,683.2656 C808.7813,683.4063 809.0156,683.5156 809.2344,683.5156 C809.5,683.5156 809.7656,683.375 809.9375,683.1563 C810.0469,683 810.0781,682.8125 810.0781,682.3906 L810.0781,680.9688 C810.0781,680.5313 810.0625,680.4063 809.9688,680.25 C809.8125,679.9844 809.5313,679.8438 809.2344,679.8438 C808.9375,679.8438 808.7344,679.9375 808.5156,680.25 L808.3438,680.1719 Z " fill="#000000"/><text fill="#000000" font-family="sans-serif" font-size="12" lengthAdjust="spacing" textLength="113" x="820" y="688.6543">DoubleRoundRobin</text><line style="stroke:#A80036;stroke-width:1.5;" x1="792" x2="935" y1="700.5" y2="700.5"/><line style="stroke:#A80036;stroke-width:1.5;" x1="792" x2="935" y1="708.5" y2="708.5"/></a><!--MD5=[7755f60668dd52e5a3f78c017448ec81]
class SingleElimination--><a href="marker:/org.eclipse.emf.ecore.diagnostic/ft/model/ft.ecore?uri=platform:/resource/ft/model/ft.ecore%23//SingleElimination" target="_top" title="marker:/org.eclipse.emf.ecore.diagnostic/ft/model/ft.ecore?uri=platform:/resource/ft/model/ft.ecore%23//SingleElimination" xlink:actuate="onRequest" xlink:href="marker:/org.eclipse.emf.ecore.diagnostic/ft/model/ft.ecore?uri=platform:/resource/ft/model/ft.ecore%23//SingleElimination" xlink:show="new" xlink:title="marker:/org.eclipse.emf.ecore.diagnostic/ft/model/ft.ecore?uri=platform:/resource/ft/model/ft.ecore%23//SingleElimination" xlink:type="simple"><rect codeLine="30" fill="#FEFECE" filter="url(#fsafl3ar409mk)" height="48" id="SingleElimination" style="stroke:#A80036;stroke-width:1.5;" width="132" x="1215.5" y="668.5"/><ellipse cx="1230.5" cy="684.5" fill="#ADD1B2" rx="11" ry="11" style="stroke:#A80036;stroke-width:1.0;"/><path d="M1232.8438,680.1719 C1231.9063,679.7344 1231.3125,679.5938 1230.4375,679.5938 C1227.8125,679.5938 1225.8125,681.6719 1225.8125,684.3906 L1225.8125,685.5156 C1225.8125,688.0938 1227.9219,689.9844 1230.8125,689.9844 C1232.0313,689.9844 1233.1875,689.6875 1233.9375,689.1406 C1234.5156,688.7344 1234.8438,688.2813 1234.8438,687.8906 C1234.8438,687.4375 1234.4531,687.0469 1233.9844,687.0469 C1233.7656,687.0469 1233.5625,687.125 1233.375,687.3125 C1232.9219,687.7969 1232.9219,687.7969 1232.7344,687.8906 C1232.3125,688.1563 1231.625,688.2813 1230.8594,688.2813 C1228.8125,688.2813 1227.5156,687.1875 1227.5156,685.4844 L1227.5156,684.3906 C1227.5156,682.6094 1228.7656,681.2969 1230.5,681.2969 C1231.0781,681.2969 1231.6875,681.4531 1232.1563,681.7031 C1232.6406,681.9844 1232.8125,682.2031 1232.9063,682.6094 C1232.9688,683.0156 1233,683.1406 1233.1406,683.2656 C1233.2813,683.4063 1233.5156,683.5156 1233.7344,683.5156 C1234,683.5156 1234.2656,683.375 1234.4375,683.1563 C1234.5469,683 1234.5781,682.8125 1234.5781,682.3906 L1234.5781,680.9688 C1234.5781,680.5313 1234.5625,680.4063 1234.4688,680.25 C1234.3125,679.9844 1234.0313,679.8438 1233.7344,679.8438 C1233.4375,679.8438 1233.2344,679.9375 1233.0156,680.25 L1232.8438,680.1719 Z " fill="#000000"/><text fill="#000000" font-family="sans-serif" font-size="12" lengthAdjust="spacing" textLength="100" x="1244.5" y="688.6543">SingleElimination</text><line style="stroke:#A80036;stroke-width:1.5;" x1="1216.5" x2="1346.5" y1="700.5" y2="700.5"/><line style="stroke:#A80036;stroke-width:1.5;" x1="1216.5" x2="1346.5" y1="708.5" y2="708.5"/></a><!--MD5=[c0b936abb008b3271898d4186b5531e4]
class Table--><a href="marker:/org.eclipse.emf.ecore.diagnostic/ft/model/ft.ecore?uri=platform:/resource/ft/model/ft.ecore%23//Table" target="_top" title="marker:/org.eclipse.emf.ecore.diagnostic/ft/model/ft.ecore?uri=platform:/resource/ft/model/ft.ecore%23//Table" xlink:actuate="onRequest" xlink:href="marker:/org.eclipse.emf.ecore.diagnostic/ft/model/ft.ecore?uri=platform:/resource/ft/model/ft.ecore%23//Table" xlink:show="new" xlink:title="marker:/org.eclipse.emf.ecore.diagnostic/ft/model/ft.ecore?uri=platform:/resource/ft/model/ft.ecore%23//Table" xlink:type="simple"><rect codeLine="32" fill="#FEFECE" filter="url(#fsafl3ar409mk)" height="48" id="Table" style="stroke:#A80036;stroke-width:1.5;" width="65" x="831" y="783"/><ellipse cx="846" cy="799" fill="#ADD1B2" rx="11" ry="11" style="stroke:#A80036;stroke-width:1.0;"/><path d="M848.3438,794.6719 C847.4063,794.2344 846.8125,794.0938 845.9375,794.0938 C843.3125,794.0938 841.3125,796.1719 841.3125,798.8906 L841.3125,800.0156 C841.3125,802.5938 843.4219,804.4844 846.3125,804.4844 C847.5313,804.4844 848.6875,804.1875 849.4375,803.6406 C850.0156,803.2344 850.3438,802.7813 850.3438,802.3906 C850.3438,801.9375 849.9531,801.5469 849.4844,801.5469 C849.2656,801.5469 849.0625,801.625 848.875,801.8125 C848.4219,802.2969 848.4219,802.2969 848.2344,802.3906 C847.8125,802.6563 847.125,802.7813 846.3594,802.7813 C844.3125,802.7813 843.0156,801.6875 843.0156,799.9844 L843.0156,798.8906 C843.0156,797.1094 844.2656,795.7969 846,795.7969 C846.5781,795.7969 847.1875,795.9531 847.6563,796.2031 C848.1406,796.4844 848.3125,796.7031 848.4063,797.1094 C848.4688,797.5156 848.5,797.6406 848.6406,797.7656 C848.7813,797.9063 849.0156,798.0156 849.2344,798.0156 C849.5,798.0156 849.7656,797.875 849.9375,797.6563 C850.0469,797.5 850.0781,797.3125 850.0781,796.8906 L850.0781,795.4688 C850.0781,795.0313 850.0625,794.9063 849.9688,794.75 C849.8125,794.4844 849.5313,794.3438 849.2344,794.3438 C848.9375,794.3438 848.7344,794.4375 848.5156,794.75 L848.3438,794.6719 Z " fill="#000000"/><text fill="#000000" font-family="sans-serif" font-size="12" lengthAdjust="spacing" textLength="33" x="860" y="803.1543">Table</text><line style="stroke:#A80036;stroke-width:1.5;" x1="832" x2="895" y1="815" y2="815"/><line style="stroke:#A80036;stroke-width:1.5;" x1="832" x2="895" y1="823" y2="823"/></a><!--MD5=[2e75c5381830ed69fc62cd395939a1b2]
class Statistic--><a href="marker:/org.eclipse.emf.ecore.diagnostic/ft/model/ft.ecore?uri=platform:/resource/ft/model/ft.ecore%23//Statistic" target="_top" title="marker:/org.eclipse.emf.ecore.diagnostic/ft/model/ft.ecore?uri=platform:/resource/ft/model/ft.ecore%23//Statistic" xlink:actuate="onRequest" xlink:href="marker:/org.eclipse.emf.ecore.diagnostic/ft/model/ft.ecore?uri=platform:/resource/ft/model/ft.ecore%23//Statistic" xlink:show="new" xlink:title="marker:/org.eclipse.emf.ecore.diagnostic/ft/model/ft.ecore?uri=platform:/resource/ft/model/ft.ecore%23//Statistic" xlink:type="simple"><rect codeLine="34" fill="#FEFECE" filter="url(#fsafl3ar409mk)" height="176.0469" id="Statistic" style="stroke:#A80036;stroke-width:1.5;" width="118" x="790.5" y="891"/><ellipse cx="823.05" cy="907" fill="#ADD1B2" rx="11" ry="11" style="stroke:#A80036;stroke-width:1.0;"/><path d="M825.3938,902.6719 C824.4563,902.2344 823.8625,902.0938 822.9875,902.0938 C820.3625,902.0938 818.3625,904.1719 818.3625,906.8906 L818.3625,908.0156 C818.3625,910.5938 820.4719,912.4844 823.3625,912.4844 C824.5813,912.4844 825.7375,912.1875 826.4875,911.6406 C827.0656,911.2344 827.3938,910.7813 827.3938,910.3906 C827.3938,909.9375 827.0031,909.5469 826.5344,909.5469 C826.3156,909.5469 826.1125,909.625 825.925,909.8125 C825.4719,910.2969 825.4719,910.2969 825.2844,910.3906 C824.8625,910.6563 824.175,910.7813 823.4094,910.7813 C821.3625,910.7813 820.0656,909.6875 820.0656,907.9844 L820.0656,906.8906 C820.0656,905.1094 821.3156,903.7969 823.05,903.7969 C823.6281,903.7969 824.2375,903.9531 824.7063,904.2031 C825.1906,904.4844 825.3625,904.7031 825.4563,905.1094 C825.5188,905.5156 825.55,905.6406 825.6906,905.7656 C825.8313,905.9063 826.0656,906.0156 826.2844,906.0156 C826.55,906.0156 826.8156,905.875 826.9875,905.6563 C827.0969,905.5 827.1281,905.3125 827.1281,904.8906 L827.1281,903.4688 C827.1281,903.0313 827.1125,902.9063 827.0188,902.75 C826.8625,902.4844 826.5813,902.3438 826.2844,902.3438 C825.9875,902.3438 825.7844,902.4375 825.5656,902.75 L825.3938,902.6719 Z " fill="#000000"/><text fill="#000000" font-family="sans-serif" font-size="12" lengthAdjust="spacing" textLength="47" x="840.95" y="911.1543">Statistic</text><line style="stroke:#A80036;stroke-width:1.5;" x1="791.5" x2="907.5" y1="923" y2="923"/><text fill="#000000" font-family="sans-serif" font-size="11" lengthAdjust="spacing" textLength="65" x="796.5" y="937.2104">position: int</text><text fill="#000000" font-family="sans-serif" font-size="11" lengthAdjust="spacing" textLength="60" x="796.5" y="950.0151">played: int</text><text fill="#000000" font-family="sans-serif" font-size="11" lengthAdjust="spacing" textLength="44" x="796.5" y="962.8198">won: int</text><text fill="#000000" font-family="sans-serif" font-size="11" lengthAdjust="spacing" textLength="55" x="796.5" y="975.6245">drawn: int</text><text fill="#000000" font-family="sans-serif" font-size="11" lengthAdjust="spacing" textLength="41" x="796.5" y="988.4292">lost: int</text><text fill="#000000" font-family="sans-serif" font-size="11" lengthAdjust="spacing" textLength="68" x="796.5" y="1001.2339">goalsFor: int</text><text fill="#000000" font-family="sans-serif" font-size="11" lengthAdjust="spacing" textLength="93" x="796.5" y="1014.0386">goalsAgainst: int</text><text fill="#000000" font-family="sans-serif" font-size="11" lengthAdjust="spacing" textLength="106" x="796.5" y="1026.8433">goalDifference: int</text><text fill="#000000" font-family="sans-serif" font-size="11" lengthAdjust="spacing" textLength="55" x="796.5" y="1039.6479">points: int</text><text fill="#000000" font-family="sans-serif" font-size="11" lengthAdjust="spacing" textLength="100" x="796.5" y="1052.4526">form: ResultKind[]</text><line style="stroke:#A80036;stroke-width:1.5;" x1="791.5" x2="907.5" y1="1059.0469" y2="1059.0469"/></a><!--MD5=[d75b0a238b734941260681f0026bbb88]
class Round--><a href="marker:/org.eclipse.emf.ecore.diagnostic/ft/model/ft.ecore?uri=platform:/resource/ft/model/ft.ecore%23//Round" target="_top" title="marker:/org.eclipse.emf.ecore.diagnostic/ft/model/ft.ecore?uri=platform:/resource/ft/model/ft.ecore%23//Round" xlink:actuate="onRequest" xlink:href="marker:/org.eclipse.emf.ecore.diagnostic/ft/model/ft.ecore?uri=platform:/resource/ft/model/ft.ecore%23//Round" xlink:show="new" xlink:title="marker:/org.eclipse.emf.ecore.diagnostic/ft/model/ft.ecore?uri=platform:/resource/ft/model/ft.ecore%23//Round" xlink:type="simple"><rect codeLine="46" fill="#FEFECE" filter="url(#fsafl3ar409mk)" height="60.8047" id="Round" style="stroke:#A80036;stroke-width:1.5;" width="137" x="1043" y="662"/><ellipse cx="1088.75" cy="678" fill="#ADD1B2" rx="11" ry="11" style="stroke:#A80036;stroke-width:1.0;"/><path d="M1091.0938,673.6719 C1090.1563,673.2344 1089.5625,673.0938 1088.6875,673.0938 C1086.0625,673.0938 1084.0625,675.1719 1084.0625,677.8906 L1084.0625,679.0156 C1084.0625,681.5938 1086.1719,683.4844 1089.0625,683.4844 C1090.2813,683.4844 1091.4375,683.1875 1092.1875,682.6406 C1092.7656,682.2344 1093.0938,681.7813 1093.0938,681.3906 C1093.0938,680.9375 1092.7031,680.5469 1092.2344,680.5469 C1092.0156,680.5469 1091.8125,680.625 1091.625,680.8125 C1091.1719,681.2969 1091.1719,681.2969 1090.9844,681.3906 C1090.5625,681.6563 1089.875,681.7813 1089.1094,681.7813 C1087.0625,681.7813 1085.7656,680.6875 1085.7656,678.9844 L1085.7656,677.8906 C1085.7656,676.1094 1087.0156,674.7969 1088.75,674.7969 C1089.3281,674.7969 1089.9375,674.9531 1090.4063,675.2031 C1090.8906,675.4844 1091.0625,675.7031 1091.1563,676.1094 C1091.2188,676.5156 1091.25,676.6406 1091.3906,676.7656 C1091.5313,676.9063 1091.7656,677.0156 1091.9844,677.0156 C1092.25,677.0156 1092.5156,676.875 1092.6875,676.6563 C1092.7969,676.5 1092.8281,676.3125 1092.8281,675.8906 L1092.8281,674.4688 C1092.8281,674.0313 1092.8125,673.9063 1092.7188,673.75 C1092.5625,673.4844 1092.2813,673.3438 1091.9844,673.3438 C1091.6875,673.3438 1091.4844,673.4375 1091.2656,673.75 L1091.0938,673.6719 Z " fill="#000000"/><text fill="#000000" font-family="sans-serif" font-size="12" lengthAdjust="spacing" textLength="37" x="1109.25" y="682.1543">Round</text><line style="stroke:#A80036;stroke-width:1.5;" x1="1044" x2="1179" y1="694" y2="694"/><text fill="#000000" font-family="sans-serif" font-size="11" lengthAdjust="spacing" textLength="125" x="1049" y="708.2104">roundNumber: Integer</text><line style="stroke:#A80036;stroke-width:1.5;" x1="1044" x2="1179" y1="714.8047" y2="714.8047"/></a><!--MD5=[5f0899136ed8f523b18ed05779c24112]
class Match--><a href="marker:/org.eclipse.emf.ecore.diagnostic/ft/model/ft.ecore?uri=platform:/resource/ft/model/ft.ecore%23//Match" target="_top" title="marker:/org.eclipse.emf.ecore.diagnostic/ft/model/ft.ecore?uri=platform:/resource/ft/model/ft.ecore%23//Match" xlink:actuate="onRequest" xlink:href="marker:/org.eclipse.emf.ecore.diagnostic/ft/model/ft.ecore?uri=platform:/resource/ft/model/ft.ecore%23//Match" xlink:show="new" xlink:title="marker:/org.eclipse.emf.ecore.diagnostic/ft/model/ft.ecore?uri=platform:/resource/ft/model/ft.ecore%23//Match" xlink:type="simple"><rect codeLine="49" fill="#FEFECE" filter="url(#fsafl3ar409mk)" height="60.8047" id="Match" style="stroke:#A80036;stroke-width:1.5;" width="131" x="944" y="948.5"/><ellipse cx="987.8" cy="964.5" fill="#ADD1B2" rx="11" ry="11" style="stroke:#A80036;stroke-width:1.0;"/><path d="M990.1438,960.1719 C989.2063,959.7344 988.6125,959.5938 987.7375,959.5938 C985.1125,959.5938 983.1125,961.6719 983.1125,964.3906 L983.1125,965.5156 C983.1125,968.0938 985.2219,969.9844 988.1125,969.9844 C989.3313,969.9844 990.4875,969.6875 991.2375,969.1406 C991.8156,968.7344 992.1438,968.2813 992.1438,967.8906 C992.1438,967.4375 991.7531,967.0469 991.2844,967.0469 C991.0656,967.0469 990.8625,967.125 990.675,967.3125 C990.2219,967.7969 990.2219,967.7969 990.0344,967.8906 C989.6125,968.1563 988.925,968.2813 988.1594,968.2813 C986.1125,968.2813 984.8156,967.1875 984.8156,965.4844 L984.8156,964.3906 C984.8156,962.6094 986.0656,961.2969 987.8,961.2969 C988.3781,961.2969 988.9875,961.4531 989.4563,961.7031 C989.9406,961.9844 990.1125,962.2031 990.2063,962.6094 C990.2688,963.0156 990.3,963.1406 990.4406,963.2656 C990.5813,963.4063 990.8156,963.5156 991.0344,963.5156 C991.3,963.5156 991.5656,963.375 991.7375,963.1563 C991.8469,963 991.8781,962.8125 991.8781,962.3906 L991.8781,960.9688 C991.8781,960.5313 991.8625,960.4063 991.7688,960.25 C991.6125,959.9844 991.3313,959.8438 991.0344,959.8438 C990.7375,959.8438 990.5344,959.9375 990.3156,960.25 L990.1438,960.1719 Z " fill="#000000"/><text fill="#000000" font-family="sans-serif" font-size="12" lengthAdjust="spacing" textLength="35" x="1008.2" y="968.6543">Match</text><line style="stroke:#A80036;stroke-width:1.5;" x1="945" x2="1074" y1="980.5" y2="980.5"/><text fill="#000000" font-family="sans-serif" font-size="11" lengthAdjust="spacing" textLength="119" x="950" y="994.7104">date: LocalDateTime</text><line style="stroke:#A80036;stroke-width:1.5;" x1="945" x2="1074" y1="1001.3047" y2="1001.3047"/></a><!--MD5=[661a4fa6c11b32a7edfb9c88735e1222]
class AbstractResult--><a href="marker:/org.eclipse.emf.ecore.diagnostic/ft/model/ft.ecore?uri=platform:/resource/ft/model/ft.ecore%23//AbstractResult" target="_top" title="marker:/org.eclipse.emf.ecore.diagnostic/ft/model/ft.ecore?uri=platform:/resource/ft/model/ft.ecore%23//AbstractResult" xlink:actuate="onRequest" xlink:href="marker:/org.eclipse.emf.ecore.diagnostic/ft/model/ft.ecore?uri=platform:/resource/ft/model/ft.ecore%23//AbstractResult" xlink:show="new" xlink:title="marker:/org.eclipse.emf.ecore.diagnostic/ft/model/ft.ecore?uri=platform:/resource/ft/model/ft.ecore%23//AbstractResult" xlink:type="simple"><rect codeLine="52" fill="#FEFECE" filter="url(#fsafl3ar409mk)" height="86.4141" id="AbstractResult" style="stroke:#A80036;stroke-width:1.5;" width="151" x="934" y="1127"/><ellipse cx="962.95" cy="1143" fill="#A9DCDF" rx="11" ry="11" style="stroke:#A80036;stroke-width:1.0;"/><path d="M965.0281,1144.8125 L965.4188,1145.7969 L965.0281,1145.7969 C964.575,1145.7969 964.4656,1145.8125 964.3094,1145.9219 C964.0594,1146.0781 963.9031,1146.3594 963.9031,1146.6563 C963.9031,1146.9219 964.0438,1147.1719 964.2625,1147.3281 C964.4031,1147.4531 964.6063,1147.5 965.0281,1147.5 L967.3875,1147.5 C967.7469,1147.5 967.9656,1147.4688 968.1063,1147.375 C968.3563,1147.2344 968.5125,1146.9375 968.5125,1146.6563 C968.5125,1146.375 968.3719,1146.125 968.1531,1145.9688 C967.9813,1145.8281 967.825,1145.7969 967.3563,1145.7969 L963.9656,1137.5938 L960.2938,1137.5938 C959.8406,1137.5938 959.7156,1137.6094 959.5594,1137.7031 C959.3094,1137.875 959.1531,1138.1563 959.1531,1138.4375 C959.1531,1138.7188 959.2938,1138.9688 959.5125,1139.1406 C959.6844,1139.25 959.8563,1139.2813 960.2938,1139.2813 L961.3719,1139.2813 L958.7313,1145.7969 C958.3094,1145.7969 958.1531,1145.8125 957.9969,1145.9219 C957.7469,1146.0781 957.5906,1146.3594 957.5906,1146.6563 C957.5906,1147.2188 957.9656,1147.5 958.7156,1147.5 L960.9813,1147.5 C961.3406,1147.5 961.5594,1147.4688 961.6844,1147.375 C961.95,1147.2344 962.0906,1146.9375 962.0906,1146.6563 C962.0906,1146.375 961.9656,1146.125 961.7469,1145.9531 C961.575,1145.8281 961.4344,1145.7969 960.9813,1145.7969 L960.5906,1145.7969 L960.9813,1144.8125 L965.0281,1144.8125 Z M964.325,1143.1094 L961.6531,1143.1094 L962.9969,1139.8438 L964.325,1143.1094 Z " fill="#000000"/><text fill="#000000" font-family="sans-serif" font-size="12" font-style="italic" lengthAdjust="spacing" textLength="88" x="980.05" y="1147.1543">AbstractResult</text><line style="stroke:#A80036;stroke-width:1.5;" x1="935" x2="1084" y1="1159" y2="1159"/><text fill="#000000" font-family="sans-serif" font-size="11" lengthAdjust="spacing" textLength="109" x="940" y="1173.2104">winner: WinnerKind</text><text fill="#000000" font-family="sans-serif" font-size="11" lengthAdjust="spacing" textLength="139" x="940" y="1186.0151">homeGoalsFinal: Integer</text><text fill="#000000" font-family="sans-serif" font-size="11" lengthAdjust="spacing" textLength="136" x="940" y="1198.8198">awayGoalsFinal: Integer</text><line style="stroke:#A80036;stroke-width:1.5;" x1="935" x2="1084" y1="1205.4141" y2="1205.4141"/></a><!--MD5=[2741598bdf59a7d7e0d5c97658fd3022]
class Result--><a href="marker:/org.eclipse.emf.ecore.diagnostic/ft/model/ft.ecore?uri=platform:/resource/ft/model/ft.ecore%23//Result" target="_top" title="marker:/org.eclipse.emf.ecore.diagnostic/ft/model/ft.ecore?uri=platform:/resource/ft/model/ft.ecore%23//Result" xlink:actuate="onRequest" xlink:href="marker:/org.eclipse.emf.ecore.diagnostic/ft/model/ft.ecore?uri=platform:/resource/ft/model/ft.ecore%23//Result" xlink:show="new" xlink:title="marker:/org.eclipse.emf.ecore.diagnostic/ft/model/ft.ecore?uri=platform:/resource/ft/model/ft.ecore%23//Result" xlink:type="simple"><rect codeLine="57" fill="#FEFECE" filter="url(#fsafl3ar409mk)" height="73.6094" id="Result" style="stroke:#A80036;stroke-width:1.5;" width="173" x="1063" y="1273"/><ellipse cx="1127.25" cy="1289" fill="#ADD1B2" rx="11" ry="11" style="stroke:#A80036;stroke-width:1.0;"/><path d="M1129.5938,1284.6719 C1128.6563,1284.2344 1128.0625,1284.0938 1127.1875,1284.0938 C1124.5625,1284.0938 1122.5625,1286.1719 1122.5625,1288.8906 L1122.5625,1290.0156 C1122.5625,1292.5938 1124.6719,1294.4844 1127.5625,1294.4844 C1128.7813,1294.4844 1129.9375,1294.1875 1130.6875,1293.6406 C1131.2656,1293.2344 1131.5938,1292.7813 1131.5938,1292.3906 C1131.5938,1291.9375 1131.2031,1291.5469 1130.7344,1291.5469 C1130.5156,1291.5469 1130.3125,1291.625 1130.125,1291.8125 C1129.6719,1292.2969 1129.6719,1292.2969 1129.4844,1292.3906 C1129.0625,1292.6563 1128.375,1292.7813 1127.6094,1292.7813 C1125.5625,1292.7813 1124.2656,1291.6875 1124.2656,1289.9844 L1124.2656,1288.8906 C1124.2656,1287.1094 1125.5156,1285.7969 1127.25,1285.7969 C1127.8281,1285.7969 1128.4375,1285.9531 1128.9063,1286.2031 C1129.3906,1286.4844 1129.5625,1286.7031 1129.6563,1287.1094 C1129.7188,1287.5156 1129.75,1287.6406 1129.8906,1287.7656 C1130.0313,1287.9063 1130.2656,1288.0156 1130.4844,1288.0156 C1130.75,1288.0156 1131.0156,1287.875 1131.1875,1287.6563 C1131.2969,1287.5 1131.3281,1287.3125 1131.3281,1286.8906 L1131.3281,1285.4688 C1131.3281,1285.0313 1131.3125,1284.9063 1131.2188,1284.75 C1131.0625,1284.4844 1130.7813,1284.3438 1130.4844,1284.3438 C1130.1875,1284.3438 1129.9844,1284.4375 1129.7656,1284.75 L1129.5938,1284.6719 Z " fill="#000000"/><text fill="#000000" font-family="sans-serif" font-size="12" lengthAdjust="spacing" textLength="36" x="1147.75" y="1293.1543">Result</text><line style="stroke:#A80036;stroke-width:1.5;" x1="1064" x2="1235" y1="1305" y2="1305"/><text fill="#000000" font-family="sans-serif" font-size="11" lengthAdjust="spacing" textLength="161" x="1069" y="1319.2104">homeGoalsFullTime: Integer</text><text fill="#000000" font-family="sans-serif" font-size="11" lengthAdjust="spacing" textLength="158" x="1069" y="1332.0151">awayGoalsFullTime: Integer</text><line style="stroke:#A80036;stroke-width:1.5;" x1="1064" x2="1235" y1="1338.6094" y2="1338.6094"/></a><!--MD5=[871b1262c3b1179d71e91c2d3b377b59]
class ExtendedTimeResult--><a href="marker:/org.eclipse.emf.ecore.diagnostic/ft/model/ft.ecore?uri=platform:/resource/ft/model/ft.ecore%23//ExtendedTimeResult" target="_top" title="marker:/org.eclipse.emf.ecore.diagnostic/ft/model/ft.ecore?uri=platform:/resource/ft/model/ft.ecore%23//ExtendedTimeResult" xlink:actuate="onRequest" xlink:href="marker:/org.eclipse.emf.ecore.diagnostic/ft/model/ft.ecore?uri=platform:/resource/ft/model/ft.ecore%23//ExtendedTimeResult" xlink:show="new" xlink:title="marker:/org.eclipse.emf.ecore.diagnostic/ft/model/ft.ecore?uri=platform:/resource/ft/model/ft.ecore%23//ExtendedTimeResult" xlink:type="simple"><rect codeLine="61" fill="#FEFECE" filter="url(#fsafl3ar409mk)" height="73.6094" id="ExtendedTimeResult" style="stroke:#A80036;stroke-width:1.5;" width="209" x="992" y="1407"/><ellipse cx="1031.75" cy="1423" fill="#ADD1B2" rx="11" ry="11" style="stroke:#A80036;stroke-width:1.0;"/><path d="M1034.0938,1418.6719 C1033.1563,1418.2344 1032.5625,1418.0938 1031.6875,1418.0938 C1029.0625,1418.0938 1027.0625,1420.1719 1027.0625,1422.8906 L1027.0625,1424.0156 C1027.0625,1426.5938 1029.1719,1428.4844 1032.0625,1428.4844 C1033.2813,1428.4844 1034.4375,1428.1875 1035.1875,1427.6406 C1035.7656,1427.2344 1036.0938,1426.7813 1036.0938,1426.3906 C1036.0938,1425.9375 1035.7031,1425.5469 1035.2344,1425.5469 C1035.0156,1425.5469 1034.8125,1425.625 1034.625,1425.8125 C1034.1719,1426.2969 1034.1719,1426.2969 1033.9844,1426.3906 C1033.5625,1426.6563 1032.875,1426.7813 1032.1094,1426.7813 C1030.0625,1426.7813 1028.7656,1425.6875 1028.7656,1423.9844 L1028.7656,1422.8906 C1028.7656,1421.1094 1030.0156,1419.7969 1031.75,1419.7969 C1032.3281,1419.7969 1032.9375,1419.9531 1033.4063,1420.2031 C1033.8906,1420.4844 1034.0625,1420.7031 1034.1563,1421.1094 C1034.2188,1421.5156 1034.25,1421.6406 1034.3906,1421.7656 C1034.5313,1421.9063 1034.7656,1422.0156 1034.9844,1422.0156 C1035.25,1422.0156 1035.5156,1421.875 1035.6875,1421.6563 C1035.7969,1421.5 1035.8281,1421.3125 1035.8281,1420.8906 L1035.8281,1419.4688 C1035.8281,1419.0313 1035.8125,1418.9063 1035.7188,1418.75 C1035.5625,1418.4844 1035.2813,1418.3438 1034.9844,1418.3438 C1034.6875,1418.3438 1034.4844,1418.4375 1034.2656,1418.75 L1034.0938,1418.6719 Z " fill="#000000"/><text fill="#000000" font-family="sans-serif" font-size="12" lengthAdjust="spacing" textLength="122" x="1051.25" y="1427.1543">ExtendedTimeResult</text><line style="stroke:#A80036;stroke-width:1.5;" x1="993" x2="1200" y1="1439" y2="1439"/><text fill="#000000" font-family="sans-serif" font-size="11" lengthAdjust="spacing" textLength="197" x="998" y="1453.2104">homeGoalsExtendedTime: Integer</text><text fill="#000000" font-family="sans-serif" font-size="11" lengthAdjust="spacing" textLength="194" x="998" y="1466.0151">awayGoalsExtendedTime: Integer</text><line style="stroke:#A80036;stroke-width:1.5;" x1="993" x2="1200" y1="1472.6094" y2="1472.6094"/></a><!--MD5=[163c8c7159478363fb9f05c16a88a223]
class PenaltyShootoutResult--><a href="marker:/org.eclipse.emf.ecore.diagnostic/ft/model/ft.ecore?uri=platform:/resource/ft/model/ft.ecore%23//PenaltyShootoutResult" target="_top" title="marker:/org.eclipse.emf.ecore.diagnostic/ft/model/ft.ecore?uri=platform:/resource/ft/model/ft.ecore%23//PenaltyShootoutResult" xlink:actuate="onRequest" xlink:href="marker:/org.eclipse.emf.ecore.diagnostic/ft/model/ft.ecore?uri=platform:/resource/ft/model/ft.ecore%23//PenaltyShootoutResult" xlink:show="new" xlink:title="marker:/org.eclipse.emf.ecore.diagnostic/ft/model/ft.ecore?uri=platform:/resource/ft/model/ft.ecore%23//PenaltyShootoutResult" xlink:type="simple"><rect codeLine="65" fill="#FEFECE" filter="url(#fsafl3ar409mk)" height="73.6094" id="PenaltyShootoutResult" style="stroke:#A80036;stroke-width:1.5;" width="218" x="908.5" y="1541"/><ellipse cx="947.8" cy="1557" fill="#ADD1B2" rx="11" ry="11" style="stroke:#A80036;stroke-width:1.0;"/><path d="M950.1438,1552.6719 C949.2063,1552.2344 948.6125,1552.0938 947.7375,1552.0938 C945.1125,1552.0938 943.1125,1554.1719 943.1125,1556.8906 L943.1125,1558.0156 C943.1125,1560.5938 945.2219,1562.4844 948.1125,1562.4844 C949.3313,1562.4844 950.4875,1562.1875 951.2375,1561.6406 C951.8156,1561.2344 952.1438,1560.7813 952.1438,1560.3906 C952.1438,1559.9375 951.7531,1559.5469 951.2844,1559.5469 C951.0656,1559.5469 950.8625,1559.625 950.675,1559.8125 C950.2219,1560.2969 950.2219,1560.2969 950.0344,1560.3906 C949.6125,1560.6563 948.925,1560.7813 948.1594,1560.7813 C946.1125,1560.7813 944.8156,1559.6875 944.8156,1557.9844 L944.8156,1556.8906 C944.8156,1555.1094 946.0656,1553.7969 947.8,1553.7969 C948.3781,1553.7969 948.9875,1553.9531 949.4563,1554.2031 C949.9406,1554.4844 950.1125,1554.7031 950.2063,1555.1094 C950.2688,1555.5156 950.3,1555.6406 950.4406,1555.7656 C950.5813,1555.9063 950.8156,1556.0156 951.0344,1556.0156 C951.3,1556.0156 951.5656,1555.875 951.7375,1555.6563 C951.8469,1555.5 951.8781,1555.3125 951.8781,1554.8906 L951.8781,1553.4688 C951.8781,1553.0313 951.8625,1552.9063 951.7688,1552.75 C951.6125,1552.4844 951.3313,1552.3438 951.0344,1552.3438 C950.7375,1552.3438 950.5344,1552.4375 950.3156,1552.75 L950.1438,1552.6719 Z " fill="#000000"/><text fill="#000000" font-family="sans-serif" font-size="12" lengthAdjust="spacing" textLength="132" x="967.2" y="1561.1543">PenaltyShootoutResult</text><line style="stroke:#A80036;stroke-width:1.5;" x1="909.5" x2="1125.5" y1="1573" y2="1573"/><text fill="#000000" font-family="sans-serif" font-size="11" lengthAdjust="spacing" textLength="206" x="914.5" y="1587.2104">homeGoalsPenaltyShootout: Integer</text><text fill="#000000" font-family="sans-serif" font-size="11" lengthAdjust="spacing" textLength="203" x="914.5" y="1600.0151">awayGoalsPenaltyShootout: Integer</text><line style="stroke:#A80036;stroke-width:1.5;" x1="909.5" x2="1125.5" y1="1606.6094" y2="1606.6094"/></a><!--MD5=[bd1a2e31e483abc327d3b826a095990f]
class GenderKind--><a href="marker:/org.eclipse.emf.ecore.diagnostic/ft/model/ft.ecore?uri=platform:/resource/ft/model/ft.ecore%23//GenderKind" target="_top" title="marker:/org.eclipse.emf.ecore.diagnostic/ft/model/ft.ecore?uri=platform:/resource/ft/model/ft.ecore%23//GenderKind" xlink:actuate="onRequest" xlink:href="marker:/org.eclipse.emf.ecore.diagnostic/ft/model/ft.ecore?uri=platform:/resource/ft/model/ft.ecore%23//GenderKind" xlink:show="new" xlink:title="marker:/org.eclipse.emf.ecore.diagnostic/ft/model/ft.ecore?uri=platform:/resource/ft/model/ft.ecore%23//GenderKind" xlink:type="simple"><rect codeLine="69" fill="#FEFECE" filter="url(#fsafl3ar409mk)" height="73.6094" id="GenderKind" style="stroke:#A80036;stroke-width:1.5;" width="105" x="17" y="13"/><ellipse cx="32.9" cy="29" fill="#EB937F" rx="11" ry="11" style="stroke:#A80036;stroke-width:1.0;"/><path d="M31.6969,29.875 L33.15,29.875 L33.15,29.9844 C33.15,30.3906 33.1813,30.5469 33.2594,30.7031 C33.4156,30.9531 33.6969,31.1094 33.9938,31.1094 C34.2438,31.1094 34.5094,30.9688 34.6656,30.75 C34.7906,30.5938 34.8219,30.4375 34.8219,29.9844 L34.8219,28.0625 C34.8219,27.9063 34.8219,27.8594 34.8063,27.7031 C34.7438,27.2344 34.4313,26.9219 33.9781,26.9219 C33.7281,26.9219 33.4625,27.0625 33.2906,27.2813 C33.1813,27.4531 33.15,27.6094 33.15,28.0625 L33.15,28.1875 L31.6969,28.1875 L31.6969,25.7813 L35.6813,25.7813 L35.6813,26.6406 C35.6813,27.0469 35.7125,27.2188 35.7906,27.375 C35.9625,27.625 36.2438,27.7813 36.525,27.7813 C36.7906,27.7813 37.0563,27.6406 37.2281,27.4219 C37.3375,27.25 37.3688,27.1094 37.3688,26.6406 L37.3688,24.0938 L29.7438,24.0938 C29.3063,24.0938 29.1813,24.1094 29.025,24.2031 C28.775,24.3594 28.6188,24.6563 28.6188,24.9375 C28.6188,25.2188 28.7594,25.4688 28.9781,25.6406 C29.1344,25.75 29.3219,25.7813 29.7438,25.7813 L29.9938,25.7813 L29.9938,32.2969 L29.7438,32.2969 C29.3375,32.2969 29.1813,32.3125 29.025,32.4219 C28.775,32.5938 28.6188,32.8594 28.6188,33.1563 C28.6188,33.4219 28.7594,33.6719 28.9781,33.8281 C29.1188,33.9531 29.3531,34 29.7438,34 L37.7438,34 L37.7438,31.4219 C37.7438,30.9844 37.7125,30.8438 37.6344,30.6875 C37.4625,30.4375 37.1813,30.2813 36.9,30.2813 C36.6344,30.2813 36.3688,30.3906 36.1969,30.6406 C36.0875,30.7969 36.0563,30.9375 36.0563,31.4219 L36.0563,32.2969 L31.6969,32.2969 L31.6969,29.875 Z " fill="#000000"/><text fill="#000000" font-family="sans-serif" font-size="12" lengthAdjust="spacing" textLength="71" x="47.1" y="33.1543">GenderKind</text><line style="stroke:#A80036;stroke-width:1.5;" x1="18" x2="121" y1="45" y2="45"/><text fill="#000000" font-family="sans-serif" font-size="11" lengthAdjust="spacing" textLength="67" x="23" y="59.2104">MALE: MALE</text><text fill="#000000" font-family="sans-serif" font-size="11" lengthAdjust="spacing" textLength="93" x="23" y="72.0151">FEMALE: FEMALE</text><line style="stroke:#A80036;stroke-width:1.5;" x1="18" x2="121" y1="78.6094" y2="78.6094"/></a><!--MD5=[6e7ea59509c611c89ac2850e830adeb8]
class ResultKind--><a href="marker:/org.eclipse.emf.ecore.diagnostic/ft/model/ft.ecore?uri=platform:/resource/ft/model/ft.ecore%23//ResultKind" target="_top" title="marker:/org.eclipse.emf.ecore.diagnostic/ft/model/ft.ecore?uri=platform:/resource/ft/model/ft.ecore%23//ResultKind" xlink:actuate="onRequest" xlink:href="marker:/org.eclipse.emf.ecore.diagnostic/ft/model/ft.ecore?uri=platform:/resource/ft/model/ft.ecore%23//ResultKind" xlink:show="new" xlink:title="marker:/org.eclipse.emf.ecore.diagnostic/ft/model/ft.ecore?uri=platform:/resource/ft/model/ft.ecore%23//ResultKind" xlink:type="simple"><rect codeLine="73" fill="#FEFECE" filter="url(#fsafl3ar409mk)" height="86.4141" id="ResultKind" style="stroke:#A80036;stroke-width:1.5;" width="94" x="157.5" y="7"/><ellipse cx="172.5" cy="23" fill="#EB937F" rx="11" ry="11" style="stroke:#A80036;stroke-width:1.0;"/><path d="M171.2969,23.875 L172.75,23.875 L172.75,23.9844 C172.75,24.3906 172.7813,24.5469 172.8594,24.7031 C173.0156,24.9531 173.2969,25.1094 173.5938,25.1094 C173.8438,25.1094 174.1094,24.9688 174.2656,24.75 C174.3906,24.5938 174.4219,24.4375 174.4219,23.9844 L174.4219,22.0625 C174.4219,21.9063 174.4219,21.8594 174.4063,21.7031 C174.3438,21.2344 174.0313,20.9219 173.5781,20.9219 C173.3281,20.9219 173.0625,21.0625 172.8906,21.2813 C172.7813,21.4531 172.75,21.6094 172.75,22.0625 L172.75,22.1875 L171.2969,22.1875 L171.2969,19.7813 L175.2813,19.7813 L175.2813,20.6406 C175.2813,21.0469 175.3125,21.2188 175.3906,21.375 C175.5625,21.625 175.8438,21.7813 176.125,21.7813 C176.3906,21.7813 176.6563,21.6406 176.8281,21.4219 C176.9375,21.25 176.9688,21.1094 176.9688,20.6406 L176.9688,18.0938 L169.3438,18.0938 C168.9063,18.0938 168.7813,18.1094 168.625,18.2031 C168.375,18.3594 168.2188,18.6563 168.2188,18.9375 C168.2188,19.2188 168.3594,19.4688 168.5781,19.6406 C168.7344,19.75 168.9219,19.7813 169.3438,19.7813 L169.5938,19.7813 L169.5938,26.2969 L169.3438,26.2969 C168.9375,26.2969 168.7813,26.3125 168.625,26.4219 C168.375,26.5938 168.2188,26.8594 168.2188,27.1563 C168.2188,27.4219 168.3594,27.6719 168.5781,27.8281 C168.7188,27.9531 168.9531,28 169.3438,28 L177.3438,28 L177.3438,25.4219 C177.3438,24.9844 177.3125,24.8438 177.2344,24.6875 C177.0625,24.4375 176.7813,24.2813 176.5,24.2813 C176.2344,24.2813 175.9688,24.3906 175.7969,24.6406 C175.6875,24.7969 175.6563,24.9375 175.6563,25.4219 L175.6563,26.2969 L171.2969,26.2969 L171.2969,23.875 Z " fill="#000000"/><text fill="#000000" font-family="sans-serif" font-size="12" lengthAdjust="spacing" textLength="62" x="186.5" y="27.1543">ResultKind</text><line style="stroke:#A80036;stroke-width:1.5;" x1="158.5" x2="250.5" y1="39" y2="39"/><text fill="#000000" font-family="sans-serif" font-size="11" lengthAdjust="spacing" textLength="77" x="163.5" y="53.2104">DRAW: DRAW</text><text fill="#000000" font-family="sans-serif" font-size="11" lengthAdjust="spacing" textLength="51" x="163.5" y="66.0151">WIN: WIN</text><text fill="#000000" font-family="sans-serif" font-size="11" lengthAdjust="spacing" textLength="69" x="163.5" y="78.8198">LOSS: LOSS</text><line style="stroke:#A80036;stroke-width:1.5;" x1="158.5" x2="250.5" y1="85.4141" y2="85.4141"/></a><!--MD5=[0b179a7e3a3544e0bcd71c567a949e8a]
class WinnerKind--><a href="marker:/org.eclipse.emf.ecore.diagnostic/ft/model/ft.ecore?uri=platform:/resource/ft/model/ft.ecore%23//WinnerKind" target="_top" title="marker:/org.eclipse.emf.ecore.diagnostic/ft/model/ft.ecore?uri=platform:/resource/ft/model/ft.ecore%23//WinnerKind" xlink:actuate="onRequest" xlink:href="marker:/org.eclipse.emf.ecore.diagnostic/ft/model/ft.ecore?uri=platform:/resource/ft/model/ft.ecore%23//WinnerKind" xlink:show="new" xlink:title="marker:/org.eclipse.emf.ecore.diagnostic/ft/model/ft.ecore?uri=platform:/resource/ft/model/ft.ecore%23//WinnerKind" xlink:type="simple"><rect codeLine="78" fill="#FEFECE" filter="url(#fsafl3ar409mk)" height="86.4141" id="WinnerKind" style="stroke:#A80036;stroke-width:1.5;" width="100" x="286.5" y="7"/><ellipse cx="301.5" cy="23" fill="#EB937F" rx="11" ry="11" style="stroke:#A80036;stroke-width:1.0;"/><path d="M300.2969,23.875 L301.75,23.875 L301.75,23.9844 C301.75,24.3906 301.7813,24.5469 301.8594,24.7031 C302.0156,24.9531 302.2969,25.1094 302.5938,25.1094 C302.8438,25.1094 303.1094,24.9688 303.2656,24.75 C303.3906,24.5938 303.4219,24.4375 303.4219,23.9844 L303.4219,22.0625 C303.4219,21.9063 303.4219,21.8594 303.4063,21.7031 C303.3438,21.2344 303.0313,20.9219 302.5781,20.9219 C302.3281,20.9219 302.0625,21.0625 301.8906,21.2813 C301.7813,21.4531 301.75,21.6094 301.75,22.0625 L301.75,22.1875 L300.2969,22.1875 L300.2969,19.7813 L304.2813,19.7813 L304.2813,20.6406 C304.2813,21.0469 304.3125,21.2188 304.3906,21.375 C304.5625,21.625 304.8438,21.7813 305.125,21.7813 C305.3906,21.7813 305.6563,21.6406 305.8281,21.4219 C305.9375,21.25 305.9688,21.1094 305.9688,20.6406 L305.9688,18.0938 L298.3438,18.0938 C297.9063,18.0938 297.7813,18.1094 297.625,18.2031 C297.375,18.3594 297.2188,18.6563 297.2188,18.9375 C297.2188,19.2188 297.3594,19.4688 297.5781,19.6406 C297.7344,19.75 297.9219,19.7813 298.3438,19.7813 L298.5938,19.7813 L298.5938,26.2969 L298.3438,26.2969 C297.9375,26.2969 297.7813,26.3125 297.625,26.4219 C297.375,26.5938 297.2188,26.8594 297.2188,27.1563 C297.2188,27.4219 297.3594,27.6719 297.5781,27.8281 C297.7188,27.9531 297.9531,28 298.3438,28 L306.3438,28 L306.3438,25.4219 C306.3438,24.9844 306.3125,24.8438 306.2344,24.6875 C306.0625,24.4375 305.7813,24.2813 305.5,24.2813 C305.2344,24.2813 304.9688,24.3906 304.7969,24.6406 C304.6875,24.7969 304.6563,24.9375 304.6563,25.4219 L304.6563,26.2969 L300.2969,26.2969 L300.2969,23.875 Z " fill="#000000"/><text fill="#000000" font-family="sans-serif" font-size="12" lengthAdjust="spacing" textLength="68" x="315.5" y="27.1543">WinnerKind</text><line style="stroke:#A80036;stroke-width:1.5;" x1="287.5" x2="385.5" y1="39" y2="39"/><text fill="#000000" font-family="sans-serif" font-size="11" lengthAdjust="spacing" textLength="77" x="292.5" y="53.2104">DRAW: DRAW</text><text fill="#000000" font-family="sans-serif" font-size="11" lengthAdjust="spacing" textLength="73" x="292.5" y="66.0151">HOME: HOME</text><text fill="#000000" font-family="sans-serif" font-size="11" lengthAdjust="spacing" textLength="75" x="292.5" y="78.8198">AWAY: AWAY</text><line style="stroke:#A80036;stroke-width:1.5;" x1="287.5" x2="385.5" y1="85.4141" y2="85.4141"/></a><!--MD5=[f97eabe6f0b7061b608c007535706f43]
class ELocalDate--><a href="marker:/org.eclipse.emf.ecore.diagnostic/ft/model/ft.ecore?uri=platform:/resource/ft/model/ft.ecore%23//ELocalDate" target="_top" title="marker:/org.eclipse.emf.ecore.diagnostic/ft/model/ft.ecore?uri=platform:/resource/ft/model/ft.ecore%23//ELocalDate" xlink:actuate="onRequest" xlink:href="marker:/org.eclipse.emf.ecore.diagnostic/ft/model/ft.ecore?uri=platform:/resource/ft/model/ft.ecore%23//ELocalDate" xlink:show="new" xlink:title="marker:/org.eclipse.emf.ecore.diagnostic/ft/model/ft.ecore?uri=platform:/resource/ft/model/ft.ecore%23//ELocalDate" xlink:type="simple"><rect codeLine="83" fill="#FEFECE" filter="url(#fsafl3ar409mk)" height="60.8047" id="ELocalDate" style="stroke:#A80036;stroke-width:1.5;" width="125" x="7" y="153"/><ellipse cx="34.15" cy="169" fill="#ADD1B2" rx="11" ry="11" style="stroke:#A80036;stroke-width:1.0;"/><path d="M36.4938,164.6719 C35.5563,164.2344 34.9625,164.0938 34.0875,164.0938 C31.4625,164.0938 29.4625,166.1719 29.4625,168.8906 L29.4625,170.0156 C29.4625,172.5938 31.5719,174.4844 34.4625,174.4844 C35.6813,174.4844 36.8375,174.1875 37.5875,173.6406 C38.1656,173.2344 38.4938,172.7813 38.4938,172.3906 C38.4938,171.9375 38.1031,171.5469 37.6344,171.5469 C37.4156,171.5469 37.2125,171.625 37.025,171.8125 C36.5719,172.2969 36.5719,172.2969 36.3844,172.3906 C35.9625,172.6563 35.275,172.7813 34.5094,172.7813 C32.4625,172.7813 31.1656,171.6875 31.1656,169.9844 L31.1656,168.8906 C31.1656,167.1094 32.4156,165.7969 34.15,165.7969 C34.7281,165.7969 35.3375,165.9531 35.8063,166.2031 C36.2906,166.4844 36.4625,166.7031 36.5563,167.1094 C36.6188,167.5156 36.65,167.6406 36.7906,167.7656 C36.9313,167.9063 37.1656,168.0156 37.3844,168.0156 C37.65,168.0156 37.9156,167.875 38.0875,167.6563 C38.1969,167.5 38.2281,167.3125 38.2281,166.8906 L38.2281,165.4688 C38.2281,165.0313 38.2125,164.9063 38.1188,164.75 C37.9625,164.4844 37.6813,164.3438 37.3844,164.3438 C37.0875,164.3438 36.8844,164.4375 36.6656,164.75 L36.4938,164.6719 Z " fill="#000000"/><text fill="#000000" font-family="sans-serif" font-size="12" lengthAdjust="spacing" textLength="66" x="50.85" y="173.1543">ELocalDate</text><line style="stroke:#A80036;stroke-width:1.5;" x1="8" x2="131" y1="185" y2="185"/><text fill="#000000" font-family="sans-serif" font-size="11" lengthAdjust="spacing" textLength="113" x="13" y="199.2104">java.time.LocalDate</text><line style="stroke:#A80036;stroke-width:1.5;" x1="8" x2="131" y1="205.8047" y2="205.8047"/></a><!--MD5=[b121517ebbd7873665d8c7f0162bfb87]
class ELocalDateTime--><a href="marker:/org.eclipse.emf.ecore.diagnostic/ft/model/ft.ecore?uri=platform:/resource/ft/model/ft.ecore%23//ELocalDateTime" target="_top" title="marker:/org.eclipse.emf.ecore.diagnostic/ft/model/ft.ecore?uri=platform:/resource/ft/model/ft.ecore%23//ELocalDateTime" xlink:actuate="onRequest" xlink:href="marker:/org.eclipse.emf.ecore.diagnostic/ft/model/ft.ecore?uri=platform:/resource/ft/model/ft.ecore%23//ELocalDateTime" xlink:show="new" xlink:title="marker:/org.eclipse.emf.ecore.diagnostic/ft/model/ft.ecore?uri=platform:/resource/ft/model/ft.ecore%23//ELocalDateTime" xlink:type="simple"><rect codeLine="86" fill="#FEFECE" filter="url(#fsafl3ar409mk)" height="60.8047" id="ELocalDateTime" style="stroke:#A80036;stroke-width:1.5;" width="154" x="167.5" y="153"/><ellipse cx="194.65" cy="169" fill="#ADD1B2" rx="11" ry="11" style="stroke:#A80036;stroke-width:1.0;"/><path d="M196.9938,164.6719 C196.0563,164.2344 195.4625,164.0938 194.5875,164.0938 C191.9625,164.0938 189.9625,166.1719 189.9625,168.8906 L189.9625,170.0156 C189.9625,172.5938 192.0719,174.4844 194.9625,174.4844 C196.1813,174.4844 197.3375,174.1875 198.0875,173.6406 C198.6656,173.2344 198.9938,172.7813 198.9938,172.3906 C198.9938,171.9375 198.6031,171.5469 198.1344,171.5469 C197.9156,171.5469 197.7125,171.625 197.525,171.8125 C197.0719,172.2969 197.0719,172.2969 196.8844,172.3906 C196.4625,172.6563 195.775,172.7813 195.0094,172.7813 C192.9625,172.7813 191.6656,171.6875 191.6656,169.9844 L191.6656,168.8906 C191.6656,167.1094 192.9156,165.7969 194.65,165.7969 C195.2281,165.7969 195.8375,165.9531 196.3063,166.2031 C196.7906,166.4844 196.9625,166.7031 197.0563,167.1094 C197.1188,167.5156 197.15,167.6406 197.2906,167.7656 C197.4313,167.9063 197.6656,168.0156 197.8844,168.0156 C198.15,168.0156 198.4156,167.875 198.5875,167.6563 C198.6969,167.5 198.7281,167.3125 198.7281,166.8906 L198.7281,165.4688 C198.7281,165.0313 198.7125,164.9063 198.6188,164.75 C198.4625,164.4844 198.1813,164.3438 197.8844,164.3438 C197.5875,164.3438 197.3844,164.4375 197.1656,164.75 L196.9938,164.6719 Z " fill="#000000"/><text fill="#000000" font-family="sans-serif" font-size="12" lengthAdjust="spacing" textLength="95" x="211.35" y="173.1543">ELocalDateTime</text><line style="stroke:#A80036;stroke-width:1.5;" x1="168.5" x2="320.5" y1="185" y2="185"/><text fill="#000000" font-family="sans-serif" font-size="11" lengthAdjust="spacing" textLength="142" x="173.5" y="199.2104">java.time.LocalDateTime</text><line style="stroke:#A80036;stroke-width:1.5;" x1="168.5" x2="320.5" y1="205.8047" y2="205.8047"/></a><!--MD5=[107af66394bf1ebaa045812c9c475148]
class Score--><a href="marker:/org.eclipse.emf.ecore.diagnostic/ft/model/ft.ecore?uri=platform:/resource/ft/model/ft.ecore%23//Score" target="_top" title="marker:/org.eclipse.emf.ecore.diagnostic/ft/model/ft.ecore?uri=platform:/resource/ft/model/ft.ecore%23//Score" xlink:actuate="onRequest" xlink:href="marker:/org.eclipse.emf.ecore.diagnostic/ft/model/ft.ecore?uri=platform:/resource/ft/model/ft.ecore%23//Score" xlink:show="new" xlink:title="marker:/org.eclipse.emf.ecore.diagnostic/ft/model/ft.ecore?uri=platform:/resource/ft/model/ft.ecore%23//Score" xlink:type="simple"><rect codeLine="89" fill="#FEFECE" filter="url(#fsafl3ar409mk)" height="60.8047" id="Score" style="stroke:#A80036;stroke-width:1.5;" width="107" x="357" y="153"/><ellipse cx="389.55" cy="169" fill="#ADD1B2" rx="11" ry="11" style="stroke:#A80036;stroke-width:1.0;"/><path d="M391.8938,164.6719 C390.9563,164.2344 390.3625,164.0938 389.4875,164.0938 C386.8625,164.0938 384.8625,166.1719 384.8625,168.8906 L384.8625,170.0156 C384.8625,172.5938 386.9719,174.4844 389.8625,174.4844 C391.0813,174.4844 392.2375,174.1875 392.9875,173.6406 C393.5656,173.2344 393.8938,172.7813 393.8938,172.3906 C393.8938,171.9375 393.5031,171.5469 393.0344,171.5469 C392.8156,171.5469 392.6125,171.625 392.425,171.8125 C391.9719,172.2969 391.9719,172.2969 391.7844,172.3906 C391.3625,172.6563 390.675,172.7813 389.9094,172.7813 C387.8625,172.7813 386.5656,171.6875 386.5656,169.9844 L386.5656,168.8906 C386.5656,167.1094 387.8156,165.7969 389.55,165.7969 C390.1281,165.7969 390.7375,165.9531 391.2063,166.2031 C391.6906,166.4844 391.8625,166.7031 391.9563,167.1094 C392.0188,167.5156 392.05,167.6406 392.1906,167.7656 C392.3313,167.9063 392.5656,168.0156 392.7844,168.0156 C393.05,168.0156 393.3156,167.875 393.4875,167.6563 C393.5969,167.5 393.6281,167.3125 393.6281,166.8906 L393.6281,165.4688 C393.6281,165.0313 393.6125,164.9063 393.5188,164.75 C393.3625,164.4844 393.0813,164.3438 392.7844,164.3438 C392.4875,164.3438 392.2844,164.4375 392.0656,164.75 L391.8938,164.6719 Z " fill="#000000"/><text fill="#000000" font-family="sans-serif" font-size="12" lengthAdjust="spacing" textLength="36" x="407.45" y="173.1543">Score</text><line style="stroke:#A80036;stroke-width:1.5;" x1="358" x2="463" y1="185" y2="185"/><text fill="#000000" font-family="sans-serif" font-size="11" lengthAdjust="spacing" textLength="95" x="363" y="199.2104">java.lang.Integer</text><line style="stroke:#A80036;stroke-width:1.5;" x1="358" x2="463" y1="205.8047" y2="205.8047"/></a><!--MD5=[8145f12e4b1b1214d76491d7e263afe2]
class RoundNumber--><a href="marker:/org.eclipse.emf.ecore.diagnostic/ft/model/ft.ecore?uri=platform:/resource/ft/model/ft.ecore%23//RoundNumber" target="_top" title="marker:/org.eclipse.emf.ecore.diagnostic/ft/model/ft.ecore?uri=platform:/resource/ft/model/ft.ecore%23//RoundNumber" xlink:actuate="onRequest" xlink:href="marker:/org.eclipse.emf.ecore.diagnostic/ft/model/ft.ecore?uri=platform:/resource/ft/model/ft.ecore%23//RoundNumber" xlink:show="new" xlink:title="marker:/org.eclipse.emf.ecore.diagnostic/ft/model/ft.ecore?uri=platform:/resource/ft/model/ft.ecore%23//RoundNumber" xlink:type="simple"><rect codeLine="92" fill="#FEFECE" filter="url(#fsafl3ar409mk)" height="60.8047" id="RoundNumber" style="stroke:#A80036;stroke-width:1.5;" width="116" x="11.5" y="280.5"/><ellipse cx="26.5" cy="296.5" fill="#ADD1B2" rx="11" ry="11" style="stroke:#A80036;stroke-width:1.0;"/><path d="M28.8438,292.1719 C27.9063,291.7344 27.3125,291.5938 26.4375,291.5938 C23.8125,291.5938 21.8125,293.6719 21.8125,296.3906 L21.8125,297.5156 C21.8125,300.0938 23.9219,301.9844 26.8125,301.9844 C28.0313,301.9844 29.1875,301.6875 29.9375,301.1406 C30.5156,300.7344 30.8438,300.2813 30.8438,299.8906 C30.8438,299.4375 30.4531,299.0469 29.9844,299.0469 C29.7656,299.0469 29.5625,299.125 29.375,299.3125 C28.9219,299.7969 28.9219,299.7969 28.7344,299.8906 C28.3125,300.1563 27.625,300.2813 26.8594,300.2813 C24.8125,300.2813 23.5156,299.1875 23.5156,297.4844 L23.5156,296.3906 C23.5156,294.6094 24.7656,293.2969 26.5,293.2969 C27.0781,293.2969 27.6875,293.4531 28.1563,293.7031 C28.6406,293.9844 28.8125,294.2031 28.9063,294.6094 C28.9688,295.0156 29,295.1406 29.1406,295.2656 C29.2813,295.4063 29.5156,295.5156 29.7344,295.5156 C30,295.5156 30.2656,295.375 30.4375,295.1563 C30.5469,295 30.5781,294.8125 30.5781,294.3906 L30.5781,292.9688 C30.5781,292.5313 30.5625,292.4063 30.4688,292.25 C30.3125,291.9844 30.0313,291.8438 29.7344,291.8438 C29.4375,291.8438 29.2344,291.9375 29.0156,292.25 L28.8438,292.1719 Z " fill="#000000"/><text fill="#000000" font-family="sans-serif" font-size="12" lengthAdjust="spacing" textLength="84" x="40.5" y="300.6543">RoundNumber</text><line style="stroke:#A80036;stroke-width:1.5;" x1="12.5" x2="126.5" y1="312.5" y2="312.5"/><text fill="#000000" font-family="sans-serif" font-size="11" lengthAdjust="spacing" textLength="95" x="17.5" y="326.7104">java.lang.Integer</text><line style="stroke:#A80036;stroke-width:1.5;" x1="12.5" x2="126.5" y1="333.3047" y2="333.3047"/></a><!--MD5=[a420e1c02f8e78d0b36677992b96b124]
reverse link AbstractHost to AssociationHost--><path codeLine="95" d="M510.076,220.24 C486.389,239.29 457.595,262.46 435.192,280.48 " fill="none" id="AbstractHost-backto-AssociationHost" style="stroke:#A80036;stroke-width:1.0;"/><polygon fill="none" points="505.916,214.6,525.887,207.52,514.692,225.51,505.916,214.6" style="stroke:#A80036;stroke-width:1.0;"/><!--MD5=[134085803968412e5b0670348a580fe6]
reverse link AbstractHost to RegionalHost--><path codeLine="96" d="M554.155,227.79 C553.998,247.56 553.817,270.2 553.686,286.7 " fill="none" id="AbstractHost-backto-RegionalHost" style="stroke:#A80036;stroke-width:1.0;"/><polygon fill="none" points="547.157,227.46,554.317,207.52,561.157,227.57,547.157,227.46" style="stroke:#A80036;stroke-width:1.0;"/><!--MD5=[6631d004fe132ba9c798f0e35d5daecd]
reverse link Stage to DoubleRoundRobin--><path codeLine="97" d="M903.687,619.737 C894.497,636.148 884.237,654.47 876.384,668.493 " fill="none" id="Stage-backto-DoubleRoundRobin" style="stroke:#A80036;stroke-width:1.0;"/><polygon fill="none" points="897.719,616.067,913.599,602.04,909.934,622.908,897.719,616.067" style="stroke:#A80036;stroke-width:1.0;"/><!--MD5=[e77de19b2aec3bd1f5554a486a000c12]
reverse link Stage to SingleElimination--><path codeLine="98" d="M979.277,594.47 C1034.04,610.69 1122.06,637.211 1197.5,662 C1203.67,664.026 1210.07,666.182 1216.47,668.37 " fill="none" id="Stage-backto-SingleElimination" style="stroke:#A80036;stroke-width:1.0;"/><polygon fill="none" points="977.214,601.16,960.014,588.79,981.177,587.74,977.214,601.16" style="stroke:#A80036;stroke-width:1.0;"/><!--MD5=[a68fa75c97862ac89399ed0d2640ee41]
reverse link AbstractResult to Result--><path codeLine="99" d="M1066.76,1227.441 C1082.26,1242.721 1098.62,1258.851 1112.67,1272.697 " fill="none" id="AbstractResult-backto-Result" style="stroke:#A80036;stroke-width:1.0;"/><polygon fill="none" points="1061.59,1232.18,1052.27,1213.154,1071.42,1222.209,1061.59,1232.18" style="stroke:#A80036;stroke-width:1.0;"/><!--MD5=[22428df4fe0076940bb21ace01b63e10]
reverse link AbstractResult to ExtendedTimeResult--><path codeLine="100" d="M1017.77,1233.234 C1023.41,1267.459 1032.31,1310.299 1045.5,1347 C1052.9,1367.602 1064.07,1389.244 1074.07,1406.754 " fill="none" id="AbstractResult-backto-ExtendedTimeResult" style="stroke:#A80036;stroke-width:1.0;"/><polygon fill="none" points="1010.8,1234.005,1014.66,1213.17,1024.64,1231.863,1010.8,1234.005" style="stroke:#A80036;stroke-width:1.0;"/><!--MD5=[0ea85f6d7a02f1fc0e76f1a330f0ad34]
reverse link Result to ExtendedTimeResult--><path codeLine="101" d="M1127.44,1365.944 C1121.88,1379.797 1116.05,1394.319 1110.96,1406.974 " fill="none" id="Result-backto-ExtendedTimeResult" style="stroke:#A80036;stroke-width:1.0;"/><polygon fill="none" points="1121.07,1363.021,1135.02,1347.07,1134.06,1368.238,1121.07,1363.021" style="stroke:#A80036;stroke-width:1.0;"/><!--MD5=[669d35529a51c5866f5f2cfa3dd7de43]
reverse link AbstractResult to PenaltyShootoutResult--><path codeLine="102" d="M991.003,1232.486 C974.752,1295.449 956.306,1395.875 974.5,1481 C978.928,1501.716 988.172,1523.3694 996.958,1540.8568 " fill="none" id="AbstractResult-backto-PenaltyShootoutResult" style="stroke:#A80036;stroke-width:1.0;"/><polygon fill="none" points="984.285,1230.516,996.263,1213.037,997.799,1234.171,984.285,1230.516" style="stroke:#A80036;stroke-width:1.0;"/><!--MD5=[4df2d78e2bcb53339f7acd8bda0c9c5b]
reverse link ExtendedTimeResult to PenaltyShootoutResult--><path codeLine="103" d="M1064.47,1498.513 C1055.93,1512.793 1046.9,1527.8825 1039.06,1540.974 " fill="none" id="ExtendedTimeResult-backto-PenaltyShootoutResult" style="stroke:#A80036;stroke-width:1.0;"/><polygon fill="none" points="1058.64,1494.636,1074.91,1481.07,1070.65,1501.826,1058.64,1494.636" style="stroke:#A80036;stroke-width:1.0;"/><!--MD5=[b494e724da26a6eb9d76e446afc22c97]
link FootballTournaments to AbstractHost--><path codeLine="104" d="M594.408,85.309 C594.408,85.309 576.872,128.02 569.147,146.83 " fill="none" id="FootballTournaments-AbstractHost" style="stroke:#A80036;stroke-width:1.0;"/><polygon fill="#A80036" points="564.116,159.08,571.2374,152.2767,566.017,154.4555,563.8382,149.2351,564.116,159.08" style="stroke:#A80036;stroke-width:1.0;"/><line style="stroke:#A80036;stroke-width:1.0;" x1="566.017" x2="569.0545" y1="154.4555" y2="147.06"/><polygon fill="#A80036" points="598.97,74.21,592.9893,78.2389,594.408,85.309,600.3887,81.2802,598.97,74.21" style="stroke:#A80036;stroke-width:1.0;"/><text fill="#000000" font-family="sans-serif" font-size="13" lengthAdjust="spacing" textLength="46" x="514.8537" y="148.3826">hosts *</text><!--MD5=[425791563769f2f5646848695f2ccdef]
link FootballTournaments to Region--><path codeLine="105" d="M616.257,86.0895 C616.257,86.0895 624.572,130.98 626.5,153 C634.06,239.34 639.239,262.27 626.5,348 C623.523,368.03 617.426,389.58 611.421,407.68 " fill="none" id="FootballTournaments-Region" style="stroke:#A80036;stroke-width:1.0;"/><polygon fill="#A80036" points="607.11,420.19,613.828,412.988,608.7416,415.4637,606.2659,410.3774,607.11,420.19" style="stroke:#A80036;stroke-width:1.0;"/><line style="stroke:#A80036;stroke-width:1.0;" x1="608.7416" x2="611.3475" y1="415.4637" y2="407.895"/><polygon fill="#A80036" points="613.818,74.34,611.121,81.0278,616.257,86.0895,618.954,79.4017,613.818,74.34" style="stroke:#A80036;stroke-width:1.0;"/><text fill="#000000" font-family="sans-serif" font-size="13" lengthAdjust="spacing" textLength="58" x="615.4858" y="409.3893">regions *</text><!--MD5=[ff34f518f3f1556afba387b8e32e764c]
reverse link AbstractHost to Tournament--><path codeLine="106" d="M607.286,213.94 C639.782,232.07 681.639,255.42 715.95,274.55 " fill="none" id="AbstractHost-backto-Tournament" style="stroke:#A80036;stroke-width:1.0;"/><polygon fill="#A80036" points="595.768,207.52,599.0569,213.9374,606.2456,213.3698,602.9567,206.9524,595.768,207.52" style="stroke:#A80036;stroke-width:1.0;"/><text fill="#000000" font-family="sans-serif" font-size="13" lengthAdjust="spacing" textLength="28" x="574.7554" y="227.6809">host</text><text fill="#000000" font-family="sans-serif" font-size="13" lengthAdjust="spacing" textLength="94" x="613.8315" y="268.4085">tournaments *</text><!--MD5=[b45898715a7de613ec865f680d3381ed]
link RegionalHost to Region--><path codeLine="107" d="M560.53,335.1 C567.185,356.97 577.267,390.09 584.898,415.16 " fill="none" id="RegionalHost-to-Region" style="stroke:#A80036;stroke-width:1.0;"/><polygon fill="#A80036" points="586.39,420.07,587.5935,410.2949,584.9328,415.287,579.9407,412.6264,586.39,420.07" style="stroke:#A80036;stroke-width:1.0;"/><text fill="#000000" font-family="sans-serif" font-size="13" lengthAdjust="spacing" textLength="40" x="540.3861" y="409.2445">region</text><!--MD5=[ddc7ecd0d69264a6657c917e5bd78a3b]
reverse link Region to Club--><path codeLine="108" d="M595.5,495.1 C595.5,543.04 595.5,622.813 595.5,691.5 C595.5,691.5 595.5,691.5 595.5,808 C595.5,926.79 597.603,966.859 661.5,1067 C678.148,1093.092 703.714,1115.663 727.396,1132.891 " fill="none" id="Region-backto-Club" style="stroke:#A80036;stroke-width:1.0;"/><polygon fill="#A80036" points="595.5,481.87,591.5,487.87,595.5,493.87,599.5,487.87,595.5,481.87" style="stroke:#A80036;stroke-width:1.0;"/><text fill="#000000" font-family="sans-serif" font-size="13" lengthAdjust="spacing" textLength="40" x="551.6875" y="501.2825">region</text><text fill="#000000" font-family="sans-serif" font-size="13" lengthAdjust="spacing" textLength="44" x="670.977" y="1123.1672">clubs *</text><!--MD5=[a8324c2371b1322296fb2ba26a5f177a]
reverse link Tournament to Season--><path codeLine="109" d="M779.5,361.62 C779.5,376.68 779.5,393.08 779.5,407.62 " fill="none" id="Tournament-backto-Season" style="stroke:#A80036;stroke-width:1.0;"/><polygon fill="#A80036" points="779.5,348.26,775.5,354.26,779.5,360.26,783.5,354.26,779.5,348.26" style="stroke:#A80036;stroke-width:1.0;"/><text fill="#000000" font-family="sans-serif" font-size="13" lengthAdjust="spacing" textLength="76" x="697.2063" y="367.7836">tournament</text><text fill="#000000" font-family="sans-serif" font-size="13" lengthAdjust="spacing" textLength="64" x="710.6" y="396.8744">seasons *</text><!--MD5=[4849456ed71c144e71bd944267c0c22f]
link Season to Club--><path codeLine="110" d="M745.596,494.19 C712.311,539.96 666.5,616.56 666.5,691.5 C666.5,691.5 666.5,691.5 666.5,808 C666.5,925.322 672.398,958.694 717.5,1067 C726.516,1088.652 740.476,1110.478 753.487,1128.352 " fill="none" id="Season-to-Club" style="stroke:#A80036;stroke-width:1.0;"/><polygon fill="#A80036" points="756.771,1132.809,754.6534,1123.1905,753.8054,1128.7834,748.2125,1127.9355,756.771,1132.809" style="stroke:#A80036;stroke-width:1.0;"/><text fill="#000000" font-family="sans-serif" font-size="13" lengthAdjust="spacing" textLength="44" x="755.3943" y="1121.9619">clubs *</text><!--MD5=[ae8fe75c19562212b927a3044da3484b]
reverse link Season to Stage--><path codeLine="111" d="M839.288,502.84 C860.009,520.46 882.236,539.36 899.066,553.67 " fill="none" id="Season-backto-Stage" style="stroke:#A80036;stroke-width:1.0;"/><polygon fill="#A80036" points="829.267,494.32,831.2504,501.253,838.4129,502.0887,836.4295,495.1557,829.267,494.32" style="stroke:#A80036;stroke-width:1.0;"/><text fill="#000000" font-family="sans-serif" font-size="13" lengthAdjust="spacing" textLength="46" x="787.533" y="514.4639">season</text><text fill="#000000" font-family="sans-serif" font-size="13" lengthAdjust="spacing" textLength="54" x="831.7977" y="542.9945">stages *</text><!--MD5=[02a09b45213499b97fdef317e1c0a6ac]
reverse link Stage to Round--><path codeLine="112" d="M971.347,606.27 C999.039,623.111 1034.57,644.718 1062.93,661.963 " fill="none" id="Stage-backto-Round" style="stroke:#A80036;stroke-width:1.0;"/><polygon fill="#A80036" points="960.002,599.37,963.0515,605.9046,970.2563,605.603,967.2068,599.0684,960.002,599.37" style="stroke:#A80036;stroke-width:1.0;"/><text fill="#000000" font-family="sans-serif" font-size="13" lengthAdjust="spacing" textLength="36" x="967.8882" y="598.5709">stage</text><text fill="#000000" font-family="sans-serif" font-size="13" lengthAdjust="spacing" textLength="55" x="991.2897" y="650.7452">rounds *</text><!--MD5=[dc63e40f5fe19e154b64576bc62c2c20]
link Stage to Club--><path codeLine="113" d="M892.91,586.49 C856.214,596.66 799.234,618.764 773.5,662 C683.579,813.08 741.842,1036.929 771.831,1128.114 " fill="none" id="Stage-to-Club" style="stroke:#A80036;stroke-width:1.0;"/><polygon fill="#A80036" points="773.413,1132.88,774.3732,1123.0781,771.8374,1128.1347,766.7808,1125.599,773.413,1132.88" style="stroke:#A80036;stroke-width:1.0;"/><text fill="#000000" font-family="sans-serif" font-size="13" lengthAdjust="spacing" textLength="44" x="723.1631" y="1122.0456">clubs *</text><!--MD5=[a3bc6090bf947b61f6057726aea37fe4]
link DoubleRoundRobin to Table--><path codeLine="114" d="M863.5,716.538 C863.5,734.283 863.5,758.899 863.5,777.818 " fill="none" id="DoubleRoundRobin-to-Table" style="stroke:#A80036;stroke-width:1.0;"/><polygon fill="#A80036" points="863.5,782.993,867.5,773.993,863.5,777.993,859.5,773.993,863.5,782.993" style="stroke:#A80036;stroke-width:1.0;"/><text fill="#000000" font-family="sans-serif" font-size="13" lengthAdjust="spacing" textLength="32" x="827.4" y="772.0032">table</text><!--MD5=[ef5b6c75a8974480956627060ef5d8f5]
link Table to Statistic--><path codeLine="115" d="M860.5979,843.2405 C860.5979,843.2405 858.716,866.09 857.741,877.936 " fill="none" id="Table-Statistic" style="stroke:#A80036;stroke-width:1.0;"/><polygon fill="#A80036" points="856.673,890.904,861.3983,882.2627,857.0835,885.9209,853.4253,881.606,856.673,890.904" style="stroke:#A80036;stroke-width:1.0;"/><line style="stroke:#A80036;stroke-width:1.0;" x1="857.0835" x2="857.7395" y1="885.9209" y2="877.9475"/><polygon fill="#A80036" points="861.583,831.281,857.104,836.9324,860.5979,843.2405,865.077,837.5891,861.583,831.281" style="stroke:#A80036;stroke-width:1.0;"/><text fill="#000000" font-family="sans-serif" font-size="13" lengthAdjust="spacing" textLength="68" x="786.4514" y="880.0579">statistics *</text><!--MD5=[c76815dfe9939c12f62466fc26dd917a]
link Table to Stage--><path codeLine="116" d="M896.187,786.16 C916.861,771.567 941.815,749.672 953.5,723 C970.213,684.852 954.501,636.593 941.005,606.76 " fill="none" id="Table-to-Stage" style="stroke:#A80036;stroke-width:1.0;"/><polygon fill="#A80036" points="938.863,602.14,939.0133,611.9877,940.9632,606.6775,946.2734,608.6274,938.863,602.14" style="stroke:#A80036;stroke-width:1.0;"/><text fill="#000000" font-family="sans-serif" font-size="13" lengthAdjust="spacing" textLength="36" x="901.489" y="621.9353">stage</text><!--MD5=[086a60c88e7329adf920c6a7e0f59eb5]
link Statistic to Club--><path codeLine="117" d="M820.489,1067.032 C813.405,1088.285 806.151,1110.046 800.174,1127.977 " fill="none" id="Statistic-to-Club" style="stroke:#A80036;stroke-width:1.0;"/><polygon fill="#A80036" points="798.524,1132.929,805.1654,1125.6564,800.1056,1128.1857,797.5762,1123.1259,798.524,1132.929" style="stroke:#A80036;stroke-width:1.0;"/><text fill="#000000" font-family="sans-serif" font-size="13" lengthAdjust="spacing" textLength="26" x="803.1378" y="1121.8264">club</text><!--MD5=[d0e06d9d81affd5d91953bab9717535b]
reverse link Round to Match--><path codeLine="118" d="M1096.43,735.537 C1075.54,793.805 1038.3,897.664 1020.1,948.425 " fill="none" id="Round-backto-Match" style="stroke:#A80036;stroke-width:1.0;"/><polygon fill="#A80036" points="1100.87,723.141,1095.0804,727.4399,1096.8219,734.4376,1102.6115,730.1387,1100.87,723.141" style="stroke:#A80036;stroke-width:1.0;"/><text fill="#000000" font-family="sans-serif" font-size="13" lengthAdjust="spacing" textLength="37" x="1057.8619" y="743.1083">round</text><text fill="#000000" font-family="sans-serif" font-size="13" lengthAdjust="spacing" textLength="67" x="948.0943" y="937.1989">matches *</text><!--MD5=[c2accd441bbd70e5aaf1e076f2b2cc5f]
link Match to Club--><path codeLine="119" d="M968.619,1009.891 C950.675,1027.305 929.758,1049.258 909.5,1067 C884.051,1089.288 853.935,1111.684 829.61,1129.789 " fill="none" id="Match-to-Club" style="stroke:#A80036;stroke-width:1.0;"/><polygon fill="#A80036" points="825.448,1132.887,835.0556,1130.7205,829.4584,1129.901,830.278,1124.3038,825.448,1132.887" style="stroke:#A80036;stroke-width:1.0;"/><text fill="#000000" font-family="sans-serif" font-size="13" lengthAdjust="spacing" textLength="65" x="838.1747" y="1122.0538">homeClub</text><!--MD5=[c2accd441bbd70e5aaf1e076f2b2cc5f]
link Match to Club--><path codeLine="120" d="M999.14,1009.891 C985.675,1027.305 964.758,1049.258 944.5,1067 C916.792,1091.266 883.552,1115.66 854.444,1134.505 " fill="none" id="Match-to-Club-1" style="stroke:#A80036;stroke-width:1.0;"/><polygon fill="#A80036" points="850.181,1137.245,859.9148,1135.7442,854.3873,1134.5418,855.5897,1129.0142,850.181,1137.245" style="stroke:#A80036;stroke-width:1.0;"/><text fill="#000000" font-family="sans-serif" font-size="13" lengthAdjust="spacing" textLength="63" x="858.0632" y="1147.2421">awayClub</text><!--MD5=[58867d5c38e55931c355c810483f58e4]
link Match to AbstractResult--><path codeLine="121" d="M1009.5,1021.531 C1009.5,1021.531 1009.5,1084.377 1009.5,1113.411 " fill="none" id="Match-AbstractResult" style="stroke:#A80036;stroke-width:1.0;"/><polygon fill="#A80036" points="1009.5,1126.702,1013.5,1117.702,1009.5,1121.702,1005.5,1117.702,1009.5,1126.702" style="stroke:#A80036;stroke-width:1.0;"/><line style="stroke:#A80036;stroke-width:1.0;" x1="1009.5" x2="1009.5" y1="1121.702" y2="1113.702"/><polygon fill="#A80036" points="1009.5,1009.531,1005.5,1015.531,1009.5,1021.531,1013.5,1015.531,1009.5,1009.531" style="stroke:#A80036;stroke-width:1.0;"/><text fill="#000000" font-family="sans-serif" font-size="13" lengthAdjust="spacing" textLength="36" x="970.7438" y="1115.9689">result</text><!--MD5=[24f074c19250151b25d8da1aa98dee83]
link GenderKind to ResultKind--><!--MD5=[e1aa142e66688c76d74fcbf123c6d291]
link ResultKind to WinnerKind--><!--MD5=[86245cb28db3bfdb10492c12723cdd86]
link GenderKind to ELocalDate--><!--MD5=[765395df8a95b06a9420c94a7bc18b23]
link ELocalDate to ELocalDateTime--><!--MD5=[2368af8151c0040e9275f4629dfd64ad]
link ELocalDateTime to Score--><!--MD5=[8dd8e0ce3cfdf70ef2140a41e1fcc8aa]
link ELocalDate to RoundNumber--><!--MD5=[b5668b8059d26d88b572406c41505451]
@startuml
class FootballTournaments [[marker:/org.eclipse.emf.ecore.diagnostic/ft/model/ft.ecore?uri=platform:/resource/ft/model/ft.ecore%23//FootballTournaments]] {
}
abstract class AbstractHost [[marker:/org.eclipse.emf.ecore.diagnostic/ft/model/ft.ecore?uri=platform:/resource/ft/model/ft.ecore%23//AbstractHost]] {
}
class AssociationHost [[marker:/org.eclipse.emf.ecore.diagnostic/ft/model/ft.ecore?uri=platform:/resource/ft/model/ft.ecore%23//AssociationHost]] {
	name: String
}
class RegionalHost [[marker:/org.eclipse.emf.ecore.diagnostic/ft/model/ft.ecore?uri=platform:/resource/ft/model/ft.ecore%23//RegionalHost]] {
}
class Region [[marker:/org.eclipse.emf.ecore.diagnostic/ft/model/ft.ecore?uri=platform:/resource/ft/model/ft.ecore%23//Region]] {
	name: String
}
class Club [[marker:/org.eclipse.emf.ecore.diagnostic/ft/model/ft.ecore?uri=platform:/resource/ft/model/ft.ecore%23//Club]] {
	name: String
	gender: GenderKind
}
class Tournament [[marker:/org.eclipse.emf.ecore.diagnostic/ft/model/ft.ecore?uri=platform:/resource/ft/model/ft.ecore%23//Tournament]] {
	name: String
	gender: GenderKind
}
class Season [[marker:/org.eclipse.emf.ecore.diagnostic/ft/model/ft.ecore?uri=platform:/resource/ft/model/ft.ecore%23//Season]] {
	startDate: LocalDate
	endDate: LocalDate
	yearIdentifier: String
}
class Stage [[marker:/org.eclipse.emf.ecore.diagnostic/ft/model/ft.ecore?uri=platform:/resource/ft/model/ft.ecore%23//Stage]] {
}
class DoubleRoundRobin [[marker:/org.eclipse.emf.ecore.diagnostic/ft/model/ft.ecore?uri=platform:/resource/ft/model/ft.ecore%23//DoubleRoundRobin]] {
}
class SingleElimination [[marker:/org.eclipse.emf.ecore.diagnostic/ft/model/ft.ecore?uri=platform:/resource/ft/model/ft.ecore%23//SingleElimination]] {
}
class Table [[marker:/org.eclipse.emf.ecore.diagnostic/ft/model/ft.ecore?uri=platform:/resource/ft/model/ft.ecore%23//Table]] {
}
class Statistic [[marker:/org.eclipse.emf.ecore.diagnostic/ft/model/ft.ecore?uri=platform:/resource/ft/model/ft.ecore%23//Statistic]] {
	position: int
	played: int
	won: int
	drawn: int
	lost: int
	goalsFor: int
	goalsAgainst: int
	goalDifference: int
	points: int
	form: ResultKind[]
}
class Round [[marker:/org.eclipse.emf.ecore.diagnostic/ft/model/ft.ecore?uri=platform:/resource/ft/model/ft.ecore%23//Round]] {
	roundNumber: Integer
}
class Match [[marker:/org.eclipse.emf.ecore.diagnostic/ft/model/ft.ecore?uri=platform:/resource/ft/model/ft.ecore%23//Match]] {
	date: LocalDateTime
}
abstract class AbstractResult [[marker:/org.eclipse.emf.ecore.diagnostic/ft/model/ft.ecore?uri=platform:/resource/ft/model/ft.ecore%23//AbstractResult]] {
	winner: WinnerKind
	homeGoalsFinal: Integer
	awayGoalsFinal: Integer
}
class Result [[marker:/org.eclipse.emf.ecore.diagnostic/ft/model/ft.ecore?uri=platform:/resource/ft/model/ft.ecore%23//Result]] {
	homeGoalsFullTime: Integer
	awayGoalsFullTime: Integer
}
class ExtendedTimeResult [[marker:/org.eclipse.emf.ecore.diagnostic/ft/model/ft.ecore?uri=platform:/resource/ft/model/ft.ecore%23//ExtendedTimeResult]] {
	homeGoalsExtendedTime: Integer
	awayGoalsExtendedTime: Integer
}
class PenaltyShootoutResult [[marker:/org.eclipse.emf.ecore.diagnostic/ft/model/ft.ecore?uri=platform:/resource/ft/model/ft.ecore%23//PenaltyShootoutResult]] {
	homeGoalsPenaltyShootout: Integer
	awayGoalsPenaltyShootout: Integer
}
enum GenderKind [[marker:/org.eclipse.emf.ecore.diagnostic/ft/model/ft.ecore?uri=platform:/resource/ft/model/ft.ecore%23//GenderKind]] {
	MALE: MALE
	FEMALE: FEMALE
}
enum ResultKind [[marker:/org.eclipse.emf.ecore.diagnostic/ft/model/ft.ecore?uri=platform:/resource/ft/model/ft.ecore%23//ResultKind]] {
	DRAW: DRAW
	WIN: WIN
	LOSS: LOSS
}
enum WinnerKind [[marker:/org.eclipse.emf.ecore.diagnostic/ft/model/ft.ecore?uri=platform:/resource/ft/model/ft.ecore%23//WinnerKind]] {
	DRAW: DRAW
	HOME: HOME
	AWAY: AWAY
}
class ELocalDate [[marker:/org.eclipse.emf.ecore.diagnostic/ft/model/ft.ecore?uri=platform:/resource/ft/model/ft.ecore%23//ELocalDate]] {
	java.time.LocalDate
}
class ELocalDateTime [[marker:/org.eclipse.emf.ecore.diagnostic/ft/model/ft.ecore?uri=platform:/resource/ft/model/ft.ecore%23//ELocalDateTime]] {
	java.time.LocalDateTime
}
class Score [[marker:/org.eclipse.emf.ecore.diagnostic/ft/model/ft.ecore?uri=platform:/resource/ft/model/ft.ecore%23//Score]] {
	java.lang.Integer
}
class RoundNumber [[marker:/org.eclipse.emf.ecore.diagnostic/ft/model/ft.ecore?uri=platform:/resource/ft/model/ft.ecore%23//RoundNumber]] {
	java.lang.Integer
}
AbstractHost <|- - AssociationHost
AbstractHost <|- - RegionalHost
Stage <|- - DoubleRoundRobin
Stage <|- - SingleElimination
AbstractResult <|- - Result
AbstractResult <|- - ExtendedTimeResult
Result <|- - ExtendedTimeResult
AbstractResult <|- - PenaltyShootoutResult
ExtendedTimeResult <|- - PenaltyShootoutResult
FootballTournaments *- -> "hosts *" AbstractHost
FootballTournaments *- -> "regions *" Region
AbstractHost "host" *- - "tournaments *" Tournament
RegionalHost - -> "region" Region
Region "region" *- - "clubs *" Club
Tournament "tournament" *- - "seasons *" Season
Season - -> "clubs *" Club
Season "season" *- - "stages *" Stage
Stage "stage" *- - "rounds *" Round
Stage - -> "clubs *" Club
DoubleRoundRobin - -> "table" Table
Table *- -> "statistics *" Statistic
Table - -> "stage" Stage
Statistic - -> "club" Club
Round "round" *- - "matches *" Match
Match - -> "homeClub" Club
Match - -> "awayClub" Club
Match *- -> "result" AbstractResult
@enduml

PlantUML version 1.2021.11beta2(Unknown compile time)
(GPL source distribution)
Java Runtime: Java(TM) SE Runtime Environment
JVM: Java HotSpot(TM) 64-Bit Server VM
Default Encoding: UTF-8
Language: en
Country: US
--></g></svg>